<?xml version="1.0" encoding="UTF-8"?>
<svg version="1.1" xmlns="http://www.w3.org/2000/svg" width="1037" height="241">
<path d="M0 0 C0.86625 0.721875 1.7325 1.44375 2.625 2.1875 C3.615 2.909375 4.605 3.63125 5.625 4.375 C9.49716366 7.63253451 11.99982081 11.91460195 14.625 16.1875 C15.17027344 15.39085938 15.71554687 14.59421875 16.27734375 13.7734375 C22.4158634 5.1480304 28.45877705 -1.78804587 39.37109375 -3.62890625 C46.47783715 -4.20779176 52.72500479 -2.91630217 58.625 1.1875 C64.62026255 6.5181607 68.19268222 12.95696176 69.0078125 20.93359375 C69.76590225 38.02544438 62.5469373 48.83936016 51.375 61.1875 C43.15289186 70.0229652 34.41063638 77.85901903 24.6875 85 C23.96546387 85.5465625 23.24342773 86.093125 22.49951172 86.65625 C20.5736605 88.02806456 18.78867995 89.23398903 16.625 90.1875 C13.84765625 89.671875 13.84765625 89.671875 11.625 88.1875 C11.01398437 87.79433594 10.40296875 87.40117187 9.7734375 86.99609375 C9.18820312 86.54363281 8.60296875 86.09117187 8 85.625 C7.319375 85.0990625 6.63875 84.573125 5.9375 84.03125 C2.3196033 81.14671074 -1.26927734 78.22890302 -4.8359375 75.28125 C-6.26741564 74.1008311 -7.70534655 72.92783895 -9.1640625 71.78125 C-12.74161561 68.94981759 -15.64975845 65.7447351 -18.58984375 62.28125 C-19.74490013 60.92652304 -20.92348962 59.59136874 -22.12890625 58.28125 C-29.14481607 50.62182272 -34.7921295 42.33301531 -37.375 32.1875 C-37.601875 31.341875 -37.82875 30.49625 -38.0625 29.625 C-39.09793836 21.54858082 -38.42561098 13.88447246 -33.8984375 6.9140625 C-25.20331981 -3.76624188 -12.35798046 -6.63669321 0 0 Z " fill="#CF4231" transform="translate(918.375,77.8125)"/>
<path d="M0 0 C1.60725635 3.21451269 1.05748185 6.43612536 1 10 C1.556875 9.52949219 2.11375 9.05898437 2.6875 8.57421875 C10.97111066 1.81579992 17.05137472 -0.68125276 27.87109375 -0.41796875 C33.97002556 0.39674499 37.50891353 3.32252772 41.5 7.8125 C41.995 8.534375 42.49 9.25625 43 10 C43.94875 9.0925 44.8975 8.185 45.875 7.25 C53.37317821 0.93416926 61.00177106 -0.74220346 70.71875 -0.45703125 C75.44560843 0.2013526 78.45317436 1.89204925 82 5 C83.175625 5.9590625 83.175625 5.9590625 84.375 6.9375 C88.70882285 12.43812131 88.30748039 18.91849794 88.34375 25.578125 C88.3583728 26.58591003 88.37299561 27.59369507 88.38806152 28.63201904 C88.45019804 32.92968364 88.49009192 37.22748631 88.53173828 41.52539062 C88.56536308 44.668125 88.61047789 47.81054797 88.65625 50.953125 C88.66416565 52.41869843 88.66416565 52.41869843 88.67224121 53.91387939 C88.68565552 54.81531677 88.69906982 55.71675415 88.71289062 56.64550781 C88.72382751 57.83747772 88.72382751 57.83747772 88.73498535 59.05352783 C88.83208525 61.23558475 88.83208525 61.23558475 91 63 C92.98356483 63.71408334 94.98315437 64.38617742 97 65 C97 66.98 97 68.96 97 71 C84.79 71 72.58 71 60 71 C60 69.02 60 67.04 60 65 C60.969375 64.54625 61.93875 64.0925 62.9375 63.625 C66.07079582 62.34213779 66.07079582 62.34213779 67 60 C67.11129479 57.21426335 67.16411788 54.4543091 67.16796875 51.66796875 C67.17129715 50.83920731 67.17462555 50.01044586 67.17805481 49.15657043 C67.18312271 47.40052852 67.18546318 45.64447696 67.18530273 43.88842773 C67.18748279 41.20865857 67.20562193 38.52930531 67.22460938 35.84960938 C67.22754465 34.14323057 67.22952855 32.43684982 67.23046875 30.73046875 C67.24124702 29.53178413 67.24124702 29.53178413 67.25224304 28.30888367 C67.23513574 24.11658596 67.06043707 20.76864397 65 17 C62.45159983 14.69430461 60.5241537 13.09842871 57.00390625 12.87109375 C52.68734584 13.27092638 49.35602097 14.13346249 46 17 C45.23541684 20.18436285 45.34787206 23.33333488 45.40625 26.59375 C45.40620972 27.53682007 45.40616943 28.47989014 45.40612793 29.45153809 C45.41148949 31.44546167 45.42909934 33.43938425 45.45800781 35.43310547 C45.49984406 38.4886112 45.49907978 41.54191263 45.4921875 44.59765625 C45.50268036 46.53386952 45.51561898 48.4700714 45.53125 50.40625 C45.53145142 51.32192749 45.53165283 52.23760498 45.53186035 53.18103027 C45.55572815 54.45750427 45.55572815 54.45750427 45.58007812 55.75976562 C45.59270691 56.88203552 45.59270691 56.88203552 45.60559082 58.02697754 C46.10775488 60.5390412 47.01615543 61.42576603 49 63 C51.10332891 63.71447643 51.10332891 63.71447643 53 64 C53 66.31 53 68.62 53 71 C41.12 71 29.24 71 17 71 C16 66 16 66 17 64 C17.99 63.690625 18.98 63.38125 20 63.0625 C21.485 62.5365625 21.485 62.5365625 23 62 C24.27442926 58.17671223 24.18195319 54.55588082 24.203125 50.5703125 C24.21167511 49.32929276 24.21167511 49.32929276 24.22039795 48.0632019 C24.22984023 46.31314368 24.23637887 44.56306773 24.24023438 42.81298828 C24.24993847 40.14193569 24.28096785 37.47165325 24.3125 34.80078125 C24.31903058 33.09896289 24.32428084 31.39713904 24.328125 29.6953125 C24.3404718 28.89932648 24.3528186 28.10334045 24.36553955 27.28323364 C24.34720524 22.69688647 23.97758433 19.71805565 21 16 C16.96499935 13.30999957 13.74124093 13.321526 9 14 C4.72596143 16.22438719 4.72596143 16.22438719 2 20 C1.88856182 22.95451639 1.83587648 25.88474026 1.83203125 28.83984375 C1.82870285 29.71774063 1.82537445 30.59563751 1.82194519 31.50013733 C1.81687782 33.35872879 1.81453681 35.21732937 1.81469727 37.07592773 C1.81251151 39.92251547 1.79435592 42.76871529 1.77539062 45.61523438 C1.77245655 47.4192695 1.77047185 49.22330648 1.76953125 51.02734375 C1.76234573 51.88053696 1.75516022 52.73373016 1.74775696 53.61277771 C1.75674778 58.60296677 1.75674778 58.60296677 4 63 C7.05429073 64.21284876 7.05429073 64.21284876 10 65 C10 66.98 10 68.96 10 71 C-2.21 71 -14.42 71 -27 71 C-28 66 -28 66 -27 64 C-25 63.33333333 -23 62.66666667 -21 62 C-19.8239997 59.6479994 -19.87915459 58.26265599 -19.88647461 55.64208984 C-19.88655014 54.74130707 -19.88662567 53.84052429 -19.88670349 52.91244507 C-19.89186478 51.93844757 -19.89702606 50.96445007 -19.90234375 49.9609375 C-19.9037587 48.96494537 -19.90517365 47.96895325 -19.90663147 46.94277954 C-19.91224064 43.75348947 -19.9247947 40.56426894 -19.9375 37.375 C-19.94251382 35.21614685 -19.94707693 33.05729259 -19.95117188 30.8984375 C-19.96221305 25.59893143 -19.97948386 20.29947752 -20 15 C-22.64 13.68 -25.28 12.36 -28 11 C-27.67 9.35 -27.34 7.7 -27 6 C-7.04854369 0 -7.04854369 0 0 0 Z " fill="#1A0804" transform="translate(310,93)"/>
<path d="M0 0 C1.04876816 -0.00960754 2.09753632 -0.01921509 3.17808533 -0.02911377 C4.32273758 -0.03336365 5.46738983 -0.03761353 6.64672852 -0.04199219 C7.82018326 -0.04769226 8.993638 -0.05339233 10.20265198 -0.05926514 C12.69694105 -0.06873768 15.19124277 -0.07525801 17.68554688 -0.07910156 C21.47817416 -0.08874649 25.27024562 -0.11972389 29.06274414 -0.15136719 C31.48656905 -0.15790308 33.91039784 -0.16315125 36.33422852 -0.16699219 C38.02387978 -0.18551239 38.02387978 -0.18551239 39.74766541 -0.20440674 C50.75742098 -0.17373158 59.45105772 2.20545397 68.08813477 9.16113281 C73.730708 14.95219482 75.62379029 21.43194343 76.15454102 29.31738281 C75.98995944 36.36534693 73.55433029 42.74756248 69.08813477 48.16113281 C66.83813477 49.53613281 66.83813477 49.53613281 65.08813477 50.16113281 C65.08813477 50.82113281 65.08813477 51.48113281 65.08813477 52.16113281 C52.44368731 59.72388744 41.73520618 61.29931273 27.08813477 61.16113281 C26.94330434 65.59829136 26.85421724 70.03484558 26.77563477 74.47363281 C26.71279297 76.36758789 26.71279297 76.36758789 26.64868164 78.29980469 C26.63256836 79.50830078 26.61645508 80.71679688 26.59985352 81.96191406 C26.57366943 83.07735596 26.54748535 84.19279785 26.52050781 85.34204102 C26.80923178 88.35430055 26.80923178 88.35430055 29.44287109 90.00561523 C32.01763617 91.13033726 34.31299007 91.76468357 37.08813477 92.16113281 C37.08813477 94.47113281 37.08813477 96.78113281 37.08813477 99.16113281 C22.89813477 99.16113281 8.70813477 99.16113281 -5.91186523 99.16113281 C-5.91186523 97.18113281 -5.91186523 95.20113281 -5.91186523 93.16113281 C-4.19702148 91.55175781 -4.19702148 91.55175781 -1.97436523 90.41113281 C1.16868376 88.90303304 1.16868376 88.90303304 3.08813477 86.16113281 C3.20085577 83.87490073 3.24753751 81.58532828 3.26513672 79.29638672 C3.27170792 78.59050919 3.27827911 77.88463165 3.28504944 77.15736389 C3.30478772 74.81747333 3.31644538 72.47764692 3.32641602 70.13769531 C3.33049154 69.33914501 3.33456707 68.54059471 3.3387661 67.71784592 C3.35962788 63.49223844 3.3739298 59.26666347 3.38330078 55.04101562 C3.39437294 50.67381038 3.42878133 46.3071136 3.46847248 41.94008827 C3.4945992 38.5840662 3.50298901 35.22816608 3.50658226 31.87205124 C3.51145752 30.26207414 3.52309825 28.65210282 3.54162025 27.04222488 C3.56593196 24.78929404 3.56506225 22.53768943 3.55810547 20.28466797 C3.56397171 19.00274567 3.56983795 17.72082336 3.57588196 16.40005493 C3.00196103 12.58888957 2.11143586 11.46533649 -0.91186523 9.16113281 C-3.54409485 7.90677095 -3.54409485 7.90677095 -5.91186523 7.16113281 C-5.9544088 5.16158535 -5.95267306 3.16071645 -5.91186523 1.16113281 C-4.25309176 -0.49764066 -2.28192521 0.0168094 0 0 Z M26.08813477 9.16113281 C26.08813477 23.02113281 26.08813477 36.88113281 26.08813477 51.16113281 C36.69406902 51.73036949 36.69406902 51.73036949 46.08813477 48.16113281 C51.814877 42.37173476 53.21412475 37.25328124 53.33813477 29.22363281 C53.26754311 22.82332249 51.96700915 19.34468953 47.77563477 14.47363281 C42.48106479 9.91784004 33.00307284 5.70366377 26.08813477 9.16113281 Z " fill="#1B0805" transform="translate(71.911865234375,64.8388671875)"/>
<path d="M0 0 C0.40729228 2.32156597 0.74438677 4.6568787 1 7 C1.51949219 6.59007813 2.03898437 6.18015625 2.57421875 5.7578125 C3.27160156 5.21898438 3.96898437 4.68015625 4.6875 4.125 C5.37199219 3.59132813 6.05648437 3.05765625 6.76171875 2.5078125 C13.38335418 -1.95283545 20.25301945 -1.69389055 28 -1 C35.12496318 0.90074896 40.71194058 6.23499217 44.4765625 12.4296875 C49.9163383 22.89568888 51.75599628 32.99572569 49.1953125 44.66796875 C45.76680433 55.50914802 40.11806783 62.95418199 30.1875 68.5625 C24.81596557 71.29864957 20.6578122 72.165625 14.625 72.25 C13.52414062 72.27578125 12.42328125 72.3015625 11.2890625 72.328125 C7.6005068 71.96014557 5.19334188 70.83303613 2 69 C1.94192957 72.10408807 1.90638086 75.2080364 1.875 78.3125 C1.85824219 79.19357422 1.84148437 80.07464844 1.82421875 80.98242188 C1.81777344 81.82998047 1.81132812 82.67753906 1.8046875 83.55078125 C1.79421387 84.33106689 1.78374023 85.11135254 1.77294922 85.9152832 C1.87119141 88.3065848 1.87119141 88.3065848 4 91 C6.18505129 91.79437923 6.18505129 91.79437923 8.625 92.1875 C9.44226563 92.34605469 10.25953125 92.50460938 11.1015625 92.66796875 C12.04128906 92.83232422 12.04128906 92.83232422 13 93 C13 94.98 13 96.96 13 99 C7.32169922 99.02464705 1.64342931 99.04283462 -4.03491211 99.05493164 C-5.96818585 99.05997256 -7.90145576 99.06680519 -9.8347168 99.07543945 C-12.60726872 99.08751565 -15.37977041 99.09323057 -18.15234375 99.09765625 C-19.45702858 99.10539818 -19.45702858 99.10539818 -20.78807068 99.11329651 C-22.85905814 99.11349185 -24.92994324 99.06208168 -27 99 C-28 98 -28 98 -28.0625 95.4375 C-28.0315625 94.2309375 -28.0315625 94.2309375 -28 93 C-26.2984375 92.319375 -26.2984375 92.319375 -24.5625 91.625 C-20.95278308 90.42904194 -20.95278308 90.42904194 -20 88 C-19.86882061 85.81134115 -19.80158376 83.6187596 -19.76293945 81.42651367 C-19.74982727 80.75150314 -19.73671509 80.07649261 -19.72320557 79.38102722 C-19.68133492 77.14339921 -19.64686423 74.90573556 -19.61328125 72.66796875 C-19.58762572 71.11338596 -19.56184171 69.55880529 -19.53593445 68.00422668 C-19.48292319 64.74171265 -19.434009 61.47916491 -19.38745117 58.21655273 C-19.32716737 54.04002183 -19.25292609 49.86386799 -19.17507648 45.68763256 C-19.1174009 42.47493261 -19.0691388 39.26214092 -19.023489 36.04924965 C-19.00011526 34.50985585 -18.97337094 32.97050936 -18.94317055 31.43123436 C-18.90188706 29.2747263 -18.87378152 27.118421 -18.84887695 24.96166992 C-18.82968704 23.73526291 -18.81049713 22.5088559 -18.79072571 21.24528503 C-19.00075697 17.98826147 -19.39267286 15.83523521 -21 13 C-24.53514293 11.62032476 -24.53514293 11.62032476 -28 11 C-28 9.02 -28 7.04 -28 5 C-3.57849089 -1.78924545 -3.57849089 -1.78924545 0 0 Z M1 17 C0.52919191 18.95981935 0.52919191 18.95981935 0.56420898 21.13256836 C0.54506943 21.96030258 0.52592987 22.7880368 0.50621033 23.64085388 C0.50287186 24.53152054 0.49953339 25.42218719 0.49609375 26.33984375 C0.48610855 27.2583461 0.47612335 28.17684845 0.46583557 29.1231842 C0.45064848 31.06571954 0.44360996 33.0083331 0.4440918 34.95092773 C0.43753052 37.92367364 0.38305875 40.89307981 0.32617188 43.86523438 C0.31736962 45.75259274 0.31141553 47.63996697 0.30859375 49.52734375 C0.27625893 50.86030739 0.27625893 50.86030739 0.24327087 52.22019958 C0.27001013 54.62730166 0.35446919 56.68036117 1 59 C5.47724058 62.97374532 8.81851442 63.66217468 14.60546875 63.3671875 C18.42011949 62.7822329 20.23196474 61.70366235 23 59 C26.4427048 53.62077374 28.65551354 48.43041389 29 42 C29.05027344 41.26394531 29.10054688 40.52789062 29.15234375 39.76953125 C29.50482145 30.90119232 28.09967273 20.79677818 22 14 C14.65032586 9.20673426 6.71528993 10.01025766 1 17 Z " fill="#1A0804" transform="translate(437,94)"/>
<path d="M0 0 C13.2 0 26.4 0 40 0 C40 2.31 40 4.62 40 7 C38.865625 7.4125 37.73125 7.825 36.5625 8.25 C32.99241577 9.52531454 32.99241577 9.52531454 32.28443909 11.65643311 C31.89459609 14.86844995 31.88097058 18.01070268 31.88647461 21.24707031 C31.88632858 21.96941864 31.88618256 22.69176697 31.8860321 23.43600464 C31.88672716 25.81674228 31.8945005 28.19740108 31.90234375 30.578125 C31.90420937 32.23150591 31.9056326 33.88488738 31.90663147 35.53826904 C31.91044527 39.88494397 31.92026585 44.23158537 31.93133545 48.57824707 C31.94157401 53.01570177 31.94613433 57.45316189 31.95117188 61.890625 C31.96188914 70.59376537 31.97895191 79.29687851 32 88 C34.54956114 88.02883948 37.09879113 88.04983926 39.6484375 88.06640625 C40.36443115 88.07530884 41.0804248 88.08421143 41.81811523 88.09338379 C48.3027903 88.12493487 54.58969112 87.80238425 59.796875 83.5234375 C63.48300594 79.52708762 65.75794948 74.91526461 68 70 C69.98 70.33 71.96 70.66 74 71 C74.72300111 91.04319735 74.72300111 91.04319735 70.86477661 96.64959717 C68.08286705 98.66415405 65.83933992 98.36680792 62.43310547 98.35644531 C61.77103088 98.35848969 61.1089563 98.36053406 60.42681885 98.36264038 C58.23999349 98.36564691 56.05392312 98.34717921 53.8671875 98.328125 C52.34929593 98.32506758 50.83140155 98.32319133 49.31350708 98.32244873 C46.1341883 98.31784682 42.95512298 98.30342316 39.77587891 98.28125 C35.69221315 98.25291952 31.60874668 98.24203365 27.52499199 98.2375679 C24.39212027 98.23342024 21.25928918 98.22360906 18.12643814 98.21169281 C16.62008109 98.20598022 15.11372011 98.2012248 13.60735703 98.19742584 C11.50753588 98.19058387 9.40787563 98.17696281 7.30810547 98.16113281 C6.111362 98.15430481 4.91461853 98.14747681 3.68161011 98.14044189 C1 98 1 98 0 97 C-0.04080783 95.00041636 -0.04254356 92.99954746 0 91 C1.7015625 90.319375 1.7015625 90.319375 3.4375 89.625 C7.04721692 88.42904194 7.04721692 88.42904194 8 86 C8.13095987 83.88318979 8.19836702 81.76235007 8.23706055 79.6418457 C8.25017273 78.9895549 8.26328491 78.3372641 8.27679443 77.66520691 C8.31867231 75.50212519 8.3531455 73.33900684 8.38671875 71.17578125 C8.41237995 69.67083025 8.43816393 68.16588133 8.46406555 66.66093445 C8.51708553 63.50097118 8.56599245 60.34097296 8.61254883 57.1809082 C8.67272448 53.14356791 8.7469871 49.10662369 8.82492352 45.06959248 C8.88272846 41.95804072 8.93092951 38.84639274 8.976511 35.73464012 C8.99982503 34.24713606 9.02655087 32.75968123 9.05682945 31.27230263 C9.09831164 29.1832581 9.12629609 27.09442719 9.15112305 25.00512695 C9.17031296 23.81869095 9.18950287 22.63225494 9.20927429 21.40986633 C8.94359002 17.08086897 8.61428214 12.46454104 5.2734375 9.43359375 C4.00265707 8.76682624 2.7318233 8.10016039 1.4609375 7.43359375 C0.97882812 6.96050781 0.49671875 6.48742187 0 6 C0 4.02 0 2.04 0 0 Z " fill="#1E0A07" transform="translate(544,66)"/>
<path d="M0 0 C6.91742124 5.40423534 12.40377574 14.30581946 13.53320312 23.07348633 C13.65030166 25.34872076 13.65998271 27.5972368 13.625 29.875 C13.63660156 30.63039062 13.64820313 31.38578125 13.66015625 32.1640625 C13.62432514 39.11529796 11.56451671 44.75589222 8.25 50.875 C7.59 50.875 6.93 50.875 6.25 50.875 C5.981875 51.679375 5.71375 52.48375 5.4375 53.3125 C5.045625 54.158125 4.65375 55.00375 4.25 55.875 C3.26 56.205 2.27 56.535 1.25 56.875 C1.25 57.535 1.25 58.195 1.25 58.875 C-0.99756784 60.02582685 -3.24781748 61.17076858 -5.5 62.3125 C-6.45132813 62.80073242 -6.45132813 62.80073242 -7.421875 63.29882812 C-15.99920121 67.6321648 -26.1063166 68.51483723 -35.51953125 66.19140625 C-44.28790111 62.49057064 -52.57188591 56.06476319 -56.5 47.25 C-60.37545906 36.78626055 -60.16793474 24.16438912 -55.75 13.875 C-55.48316406 13.24335937 -55.21632812 12.61171875 -54.94140625 11.9609375 C-50.68894328 3.38041222 -42.33433315 -1.59199214 -33.75 -5.125 C-22.55086032 -8.82661038 -9.75579663 -6.06499746 0 0 Z M-34 7.875 C-39.58789739 19.02751187 -39.2831209 33.90338965 -35.59375 45.53515625 C-33.41629331 51.57356624 -31.66664219 54.91667891 -25.75 57.875 C-22.09749146 58.32355368 -19.6057909 58.16026363 -16.125 57 C-11.31957058 52.70040526 -8.62240775 46.21143521 -7.75 39.875 C-6.915653 21.7493816 -6.915653 21.7493816 -14.75 5.875 C-17.62786114 3.47678238 -19.56262545 2.08279055 -23.25 1.4375 C-28.19600402 2.3030507 -30.96747993 3.83163991 -34 7.875 Z " fill="#1C0906" transform="translate(265.75,99.125)"/>
<path d="M0 0 C7.71338208 5.74957901 13.3526248 11.63236469 16 21 C16.26490234 21.85658203 16.26490234 21.85658203 16.53515625 22.73046875 C18.78984468 33.73865344 17.09094669 44.19321293 11.3125 53.6875 C6.01564187 61.19465201 -2.85423506 67.30633983 -12 69 C-24.53774377 69.75897867 -33.14196776 68.70818415 -43.15234375 60.81640625 C-45.02421485 58.97619471 -45.99059698 57.40459883 -47 55 C-47.66 55 -48.32 55 -49 55 C-54.64744505 43.28832429 -54.64744505 43.28832429 -55 38 C-55.0825 36.80375 -55.165 35.6075 -55.25 34.375 C-55.02625125 22.67294033 -50.48447677 13.73238608 -42.75 5.25 C-31.49976809 -5.52416419 -13.55166034 -7.61899944 0 0 Z M-29 9 C-32.67938077 16.52342642 -33.68221413 23.64530095 -33.5625 31.9375 C-33.55444336 32.98711914 -33.54638672 34.03673828 -33.53808594 35.11816406 C-33.31062041 43.93998971 -32.12175737 51.50067707 -25.953125 58.234375 C-23.33628668 60.59999685 -22.3262942 60.96862556 -18.75 61.3125 C-14.26296168 60.93858014 -12.38968622 59.92745628 -9 57 C-4.31182763 49.80030672 -3.62880491 41.07917115 -3.6875 32.6875 C-3.69168945 31.8629834 -3.69587891 31.0384668 -3.70019531 30.18896484 C-3.84632688 22.23723135 -4.67711582 14.74658738 -8.9375 7.875 C-12.76228308 4.39792447 -15.65960134 3.44296845 -20.9765625 3.640625 C-24.65595783 4.29410834 -26.87096062 6.08058412 -29 9 Z " fill="#1C0A07" transform="translate(677,97)"/>
<path d="M0 0 C8.17689356 5.52927686 11.63199683 12.18384762 13.703125 21.62890625 C14.09139519 24.72995892 14 27.87473498 14 31 C-0.52 31 -15.04 31 -30 31 C-27.30169562 42.99222253 -27.30169562 42.99222253 -20.203125 53.36328125 C-13.87542317 56.43854434 -9.09448338 56.77085437 -2.3125 54.6875 C0.91118993 53.53618217 3.36117362 52.21661416 6 50 C6.66 50 7.32 50 8 50 C8 49.34 8 48.68 8 48 C9.32 48.33 10.64 48.66 12 49 C12.61328125 50.79296875 12.61328125 50.79296875 13 53 C8.05471895 62.03792744 -0.73501922 67.21281525 -10.34375 70.34375 C-18.61636888 72.38757349 -26.76274275 70.90235215 -34.19921875 66.78125 C-41.48531295 61.78507112 -46.30486596 54.52668217 -48.52734375 45.99609375 C-50.63574946 32.63124102 -49.16962837 21.21937098 -41.8125 9.6875 C-32.4058083 -3.00951519 -14.23809466 -7.73630577 0 0 Z M-25 8 C-28.15952582 13.36617877 -29.10298985 17.72092894 -30 24 C-22.08 24 -14.16 24 -6 24 C-5.06340856 19.31704279 -4.93903261 18.14903272 -6.3125 13.9375 C-6.57675781 13.10089844 -6.84101562 12.26429687 -7.11328125 11.40234375 C-8.60631363 7.35734413 -9.31938903 5.45374065 -13 3 C-18.38930975 2.16166293 -21.61790894 3.89385564 -25 8 Z " fill="#190805" transform="translate(808,96)"/>
<path d="M0 0 C3.1484375 -0.19140625 3.1484375 -0.19140625 6 0 C6.02709444 2.08326131 6.04643873 4.16662441 6.0625 6.25 C6.07410156 7.41015625 6.08570313 8.5703125 6.09765625 9.765625 C6 13 6 13 5 17 C11.6 17 18.2 17 25 17 C25 19.97 25 22.94 25 26 C24 27 24 27 22.23413086 27.11352539 C21.48526611 27.10828857 20.73640137 27.10305176 19.96484375 27.09765625 C19.15595703 27.09443359 18.34707031 27.09121094 17.51367188 27.08789062 C16.66353516 27.07951172 15.81339844 27.07113281 14.9375 27.0625 C14.08349609 27.05798828 13.22949219 27.05347656 12.34960938 27.04882812 C10.23304337 27.03700373 8.11651315 27.01906769 6 27 C6.04416602 33.17524689 6.11401463 39.34947264 6.20751953 45.52416992 C6.23571852 47.62402208 6.25693837 49.72398017 6.27099609 51.82397461 C6.29244014 54.84544059 6.33909867 57.86563434 6.390625 60.88671875 C6.39185364 61.82335861 6.39308228 62.75999847 6.39434814 63.72502136 C6.48900282 67.95182632 6.66121153 70.41800785 8.82324219 74.13208008 C10.95672333 76.37309413 10.95672333 76.37309413 14.4375 76 C17.78032693 75.06166262 20.16729769 73.97430767 23 72 C24.485 74.475 24.485 74.475 26 77 C21.62462948 83.01613446 17.00199903 85.66600032 10 88 C4.15878383 88.47571987 -1.16888893 88.83524365 -6.5625 86.375 C-11.93637248 81.13891912 -14.06695302 76.58478232 -14.20532227 69.23144531 C-14.22526749 68.29077209 -14.24521271 67.35009888 -14.26576233 66.38092041 C-14.28247482 65.37349792 -14.29918732 64.36607544 -14.31640625 63.328125 C-14.33718735 62.29057068 -14.35796844 61.25301636 -14.37937927 60.184021 C-14.44471408 56.87274742 -14.50368517 53.56139518 -14.5625 50.25 C-14.60570049 48.00389815 -14.64931527 45.75780422 -14.69335938 43.51171875 C-14.80037903 38.00789543 -14.90217522 32.50399402 -15 27 C-16.134375 26.855625 -17.26875 26.71125 -18.4375 26.5625 C-22 26 -22 26 -23 25 C-23.04080783 23.00041636 -23.04254356 20.99954746 -23 19 C-22.3709375 18.72027344 -21.741875 18.44054687 -21.09375 18.15234375 C-13.35276235 14.52667032 -7.0223532 10.3654836 -2.375 3.0625 C-1.59125 2.051875 -0.8075 1.04125 0 0 Z " fill="#1A0805" transform="translate(512,78)"/>
<path d="M0 0 C2.71481512 2.50048761 3.8036862 4.35496894 4.875 7.875 C5.07076395 12.76909885 4.1812356 16.50376824 1.125 20.375 C-1.04064081 22.03107827 -2.30384351 22.73908163 -5 23 C-8 22 -8 22 -9.3125 19.5 C-10.8134592 16.73334421 -10.8134592 16.73334421 -13.9375 16 C-16.92312322 15.79877087 -16.92312322 15.79877087 -19.16259766 16.92773438 C-22.1275795 20.2717107 -21.53208674 23.83943067 -21.4609375 28.15625 C-21.46002106 29.05492798 -21.45910461 29.95360596 -21.4581604 30.8795166 C-21.45211929 32.77926923 -21.43635799 34.67901211 -21.41162109 36.57861328 C-21.37513835 39.48896319 -21.37060152 42.39803919 -21.37109375 45.30859375 C-21.36126169 47.15365685 -21.3496043 48.99871132 -21.3359375 50.84375 C-21.33371185 51.71567993 -21.33148621 52.58760986 -21.32919312 53.48596191 C-21.31005356 54.70237366 -21.31005356 54.70237366 -21.29052734 55.94335938 C-21.28290375 56.65600952 -21.27528015 57.36865967 -21.26742554 58.10290527 C-21.09323987 60.32936142 -21.09323987 60.32936142 -19 63 C-16.67843403 63.40729228 -14.3431213 63.74438677 -12 64 C-11 65 -11 65 -11 71 C-24.2 71 -37.4 71 -51 71 C-51 69.02 -51 67.04 -51 65 C-50.05125 64.566875 -49.1025 64.13375 -48.125 63.6875 C-44.79958063 62.20697799 -44.79958063 62.20697799 -43 59 C-42.70537441 57.02414981 -42.70537441 57.02414981 -42.75708008 54.8515625 C-42.75400345 54.02060059 -42.75092682 53.18963867 -42.74775696 52.33349609 C-42.75494247 51.43969238 -42.76212799 50.54588867 -42.76953125 49.625 C-42.76998947 48.70412598 -42.77044769 47.78325195 -42.7709198 46.83447266 C-42.77394053 44.8876822 -42.78182146 42.94089413 -42.79418945 40.99414062 C-42.81242887 38.01163178 -42.81469921 35.02943376 -42.81445312 32.046875 C-42.81936913 30.15624731 -42.8251978 28.26562173 -42.83203125 26.375 C-42.83314407 25.48119629 -42.8342569 24.58739258 -42.83540344 23.66650391 C-42.84497322 22.42006104 -42.84497322 22.42006104 -42.85473633 21.1484375 C-42.85854813 20.41802246 -42.86235992 19.68760742 -42.86628723 18.93505859 C-42.93410258 16.78089672 -42.93410258 16.78089672 -44 14 C-47.50294871 12.28432339 -47.50294871 12.28432339 -51 11 C-51 9.35 -51 7.7 -51 6 C-41.71605508 3.35478194 -32.59970013 1.2303157 -23 0 C-22.67 3.3 -22.34 6.6 -22 10 C-21.278125 9.2575 -20.55625 8.515 -19.8125 7.75 C-13.63107524 1.70594024 -8.94730213 -2.44017331 0 0 Z " fill="#1D0A07" transform="translate(201,93)"/>
<path d="M0 0 C0.68429077 -0.00095673 1.36858154 -0.00191345 2.0736084 -0.00289917 C3.52286877 -0.0035808 4.97213218 -0.00172773 6.42138672 0.00244141 C8.64687928 0.00778998 10.87217001 0.0024959 13.09765625 -0.00390625 C14.50260461 -0.00324547 15.90755285 -0.0019643 17.3125 0 C18.59962891 0.00112793 19.88675781 0.00225586 21.21289062 0.00341797 C24.15625 0.1328125 24.15625 0.1328125 25.15625 1.1328125 C25.19688832 2.79898365 25.198971 4.46669345 25.15625 6.1328125 C23.50625 6.4628125 21.85625 6.7928125 20.15625 7.1328125 C23.73321258 20.49130796 27.93436492 33.33040106 33.15625 46.1328125 C34.71036037 41.54492294 36.25841759 36.95505118 37.80102539 32.36328125 C38.32607917 30.8031584 38.85275093 29.24357907 39.38110352 27.68457031 C40.14250135 25.43697557 40.89796062 23.18745742 41.65234375 20.9375 C41.88779404 20.246633 42.12324432 19.55576599 42.36582947 18.84396362 C43.66127299 14.95896641 44.60139022 11.19074223 45.15625 7.1328125 C42.68125 6.6378125 42.68125 6.6378125 40.15625 6.1328125 C40.15625 4.1528125 40.15625 2.1728125 40.15625 0.1328125 C43.80206687 0.10393738 47.44785463 0.08605665 51.09375 0.0703125 C52.65512695 0.05774414 52.65512695 0.05774414 54.24804688 0.04492188 C55.23740234 0.04169922 56.22675781 0.03847656 57.24609375 0.03515625 C58.62075806 0.02730103 58.62075806 0.02730103 60.02319336 0.01928711 C62.15625 0.1328125 62.15625 0.1328125 63.15625 1.1328125 C63.19688832 2.79898365 63.198971 4.46669345 63.15625 6.1328125 C62.05539062 6.48601562 60.95453125 6.83921875 59.8203125 7.203125 C56.63700967 8.57609456 56.2408686 8.96811581 54.5546875 12.25 C54.21695313 13.49007812 53.87921875 14.73015625 53.53125 16.0078125 C53.13298566 17.37711293 52.73189525 18.74559425 52.328125 20.11328125 C52.13412109 20.79567871 51.94011719 21.47807617 51.74023438 22.18115234 C50.90909527 24.958797 49.85641309 27.62891399 48.78125 30.3203125 C46.22178131 36.840478 43.92379025 43.44151738 41.65478516 50.06713867 C40.38553194 53.7462233 39.09274221 57.36586908 37.5078125 60.921875 C35.94042163 64.34673051 35.94042163 64.34673051 35.15625 69.1328125 C30.86625 69.1328125 26.57625 69.1328125 22.15625 69.1328125 C18.09518193 60.87851143 14.47944805 52.62953499 11.50634766 43.92114258 C9.43377745 37.85794763 7.19699965 31.86683273 4.90625 25.8828125 C4.564729 24.98933105 4.22320801 24.09584961 3.87133789 23.17529297 C2.59108064 19.83585172 1.31379157 16.50572735 -0.078125 13.2109375 C-0.84375 11.1328125 -0.84375 11.1328125 -0.84375 8.1328125 C-3.15375 7.4728125 -5.46375 6.8128125 -7.84375 6.1328125 C-7.886471 4.46669345 -7.88438832 2.79898365 -7.84375 1.1328125 C-5.93525052 -0.77568698 -2.52896226 0.00221617 0 0 Z " fill="#1B0906" transform="translate(698.84375,94.8671875)"/>
<path d="M0 0 C0.4140625 2.06640625 0.4140625 2.06640625 0.625 4.5625 C0.69976563 5.38878906 0.77453125 6.21507813 0.8515625 7.06640625 C0.90054688 7.70449219 0.94953125 8.34257813 1 9 C1.51949219 8.44570312 2.03898438 7.89140625 2.57421875 7.3203125 C3.27160156 6.59585938 3.96898437 5.87140625 4.6875 5.125 C5.37199219 4.40570313 6.05648437 3.68640625 6.76171875 2.9453125 C10.14321517 0.00642032 13.0200582 -0.89309726 17.4375 -1.375 C21.68660669 -0.92772561 23.7410659 0.28422158 27 3 C28.36887494 7.10662483 28.88760186 10.87143819 27.17578125 14.9765625 C24.54658606 19.72670697 24.54658606 19.72670697 22 21 C19.1875 21.4375 19.1875 21.4375 16 21 C14.7934375 19.4840625 14.7934375 19.4840625 13.5625 17.9375 C12.2940625 16.4834375 12.2940625 16.4834375 11 15 C7.52645923 14.94011137 5.29133121 15.20380998 2.31396484 17.03955078 C0.17837171 20.22587795 0.57341287 23.72117215 0.6015625 27.4296875 C0.59869232 28.257034 0.59582214 29.08438049 0.59286499 29.9367981 C0.59082395 31.68687626 0.59635664 33.43697722 0.60888672 35.18701172 C0.62489972 37.85827083 0.6090611 40.52800759 0.58984375 43.19921875 C0.59182697 44.90104499 0.59567229 46.60287029 0.6015625 48.3046875 C0.59548981 49.10067352 0.58941711 49.89665955 0.5831604 50.71676636 C0.64012623 55.23914951 0.94539044 58.40371218 4 62 C7.56206661 62.81870185 7.56206661 62.81870185 11 63 C12 64 12 64 12 70 C-1.2 70 -14.4 70 -28 70 C-28 68.02 -28 66.04 -28 64 C-27.05125 63.5875 -26.1025 63.175 -25.125 62.75 C-21.82253126 60.90061751 -21.28623476 60.37340087 -20 57 C-19.7084768 54.97239726 -19.7084768 54.97239726 -19.75708008 52.84570312 C-19.75400345 52.03806519 -19.75092682 51.23042725 -19.74775696 50.39831543 C-19.75494247 49.53468384 -19.76212799 48.67105225 -19.76953125 47.78125 C-19.76998947 46.88635864 -19.77044769 45.99146729 -19.7709198 45.06945801 C-19.77393695 43.17991813 -19.78180719 41.29038062 -19.79418945 39.40087891 C-19.81243276 36.5106524 -19.81469911 33.62074681 -19.81445312 30.73046875 C-19.81936923 28.8932264 -19.82519796 27.05598622 -19.83203125 25.21875 C-19.83314407 24.35511841 -19.8342569 23.49148682 -19.83540344 22.60168457 C-19.84497322 21.39022766 -19.84497322 21.39022766 -19.85473633 20.15429688 C-19.85854813 19.44688354 -19.86235992 18.73947021 -19.86628723 18.01062012 C-20.00627842 15.90559221 -20.42823802 14.02694447 -21 12 C-23.31 11.34 -25.62 10.68 -28 10 C-28 8.35 -28 6.7 -28 5 C-3.57849089 -1.78924545 -3.57849089 -1.78924545 0 0 Z " fill="#1B0906" transform="translate(851,94)"/>
<path d="M0 0 C0.86625 0.721875 1.7325 1.44375 2.625 2.1875 C3.615 2.909375 4.605 3.63125 5.625 4.375 C9.49716366 7.63253451 11.99982081 11.91460195 14.625 16.1875 C15.17027344 15.39085938 15.71554687 14.59421875 16.27734375 13.7734375 C22.4158634 5.1480304 28.45877705 -1.78804587 39.37109375 -3.62890625 C46.47783715 -4.20779176 52.72500479 -2.91630217 58.625 1.1875 C64.62026255 6.5181607 68.19268222 12.95696176 69.0078125 20.93359375 C69.76590225 38.02544438 62.5469373 48.83936016 51.375 61.1875 C43.15289186 70.0229652 34.41063638 77.85901903 24.6875 85 C23.96546387 85.5465625 23.24342773 86.093125 22.49951172 86.65625 C20.57396672 88.02784644 18.78779571 89.23297989 16.625 90.1875 C13.86328125 89.68359375 13.86328125 89.68359375 11.625 88.1875 C10.96757813 87.75953125 10.31015625 87.3315625 9.6328125 86.890625 C5.17576154 83.45074335 0.86256749 79.89537156 -3.375 76.1875 C0.29479244 76.1875 1.62131532 77.13620315 4.625 79.1875 C5.95833333 80.52083333 7.29166667 81.85416667 8.625 83.1875 C10.60130407 84.55571051 12.59709016 85.89701192 14.625 87.1875 C18.85068322 85.17821772 22.39519486 82.55142762 26.125 79.75 C26.83116455 79.22011475 27.5373291 78.69022949 28.26489258 78.14428711 C43.20832966 66.77336306 60.60843966 52.0747341 65.625 33.1875 C65.83603169 30.49342016 65.95021909 27.93881473 65.9375 25.25 C65.95361328 24.57259766 65.96972656 23.89519531 65.98632812 23.19726562 C65.99334102 15.88281276 63.25812139 9.82237737 58.625 4.1875 C52.93095326 0.12402119 46.47782338 -1.32622043 39.55859375 -0.59375 C31.39549984 1.06762332 25.58409256 5.42710006 20.87890625 12.18359375 C19.26240239 14.76697842 17.87520037 17.40927697 16.625 20.1875 C14.80859375 19.98828125 14.80859375 19.98828125 12.625 19.1875 C11.09765625 17.04296875 11.09765625 17.04296875 9.6875 14.375 C7.44147077 10.36872394 5.42075515 7.86685658 1.625 5.1875 C1.625 4.5275 1.625 3.8675 1.625 3.1875 C-8.06384458 0.03068384 -15.71468216 -2.2725318 -25.375 2.1875 C-30.71441443 5.50980231 -33.58832528 10.10635734 -35.125 16.125 C-36.55002739 33.58158554 -29.54989675 45.71758838 -18.6953125 58.68896484 C-16.64121449 61.0203357 -14.39509639 62.97943613 -11.9453125 64.87890625 C-9.04851159 67.29290701 -6.73741643 70.26260347 -4.375 73.1875 C-4.705 73.8475 -5.035 74.5075 -5.375 75.1875 C-10.21274145 71.16652009 -14.59892956 67.01810378 -18.66015625 62.2109375 C-19.78741403 60.88082468 -20.9407944 59.57234098 -22.12109375 58.2890625 C-29.14084159 50.62831319 -34.7912268 42.33656113 -37.375 32.1875 C-37.601875 31.341875 -37.82875 30.49625 -38.0625 29.625 C-39.09793836 21.54858082 -38.42561098 13.88447246 -33.8984375 6.9140625 C-25.20331981 -3.76624188 -12.35798046 -6.63669321 0 0 Z " fill="#903C35" transform="translate(918.375,77.8125)"/>
<path d="M0 0 C1.93359375 0.00966797 1.93359375 0.00966797 3.90625 0.01953125 C5.25260692 0.03623787 6.59896109 0.05316771 7.9453125 0.0703125 C9.31509767 0.08035586 10.68488992 0.08947933 12.0546875 0.09765625 C15.39341006 0.12116838 18.73177011 0.1540332 22.0703125 0.1953125 C22.0703125 2.5053125 22.0703125 4.8153125 22.0703125 7.1953125 C20.9359375 7.6078125 19.8015625 8.0203125 18.6328125 8.4453125 C15.06272827 9.72062704 15.06272827 9.72062704 14.35475159 11.85174561 C13.96490859 15.06376245 13.95128308 18.20601518 13.95678711 21.44238281 C13.95664108 22.16473114 13.95649506 22.88707947 13.9563446 23.63131714 C13.95703966 26.01205478 13.964813 28.39271358 13.97265625 30.7734375 C13.97452187 32.42681841 13.9759451 34.08019988 13.97694397 35.73358154 C13.98075777 40.08025647 13.99057835 44.42689787 14.00164795 48.77355957 C14.01188651 53.21101427 14.01644683 57.64847439 14.02148438 62.0859375 C14.03220164 70.78907787 14.04926441 79.49219101 14.0703125 88.1953125 C16.61987364 88.22415198 19.16910363 88.24515176 21.71875 88.26171875 C22.43474365 88.27062134 23.1507373 88.27952393 23.88842773 88.28869629 C30.3731028 88.32024737 36.66000362 87.99769675 41.8671875 83.71875 C45.55331844 79.72240012 47.82826198 75.11057711 50.0703125 70.1953125 C52.0503125 70.5253125 54.0303125 70.8553125 56.0703125 71.1953125 C56.77448458 90.71652749 56.77448458 90.71652749 52.9453125 97.05859375 C49.98418217 98.85377901 47.2932516 98.4766778 43.8828125 98.3828125 C42.61050781 98.35574219 41.33820312 98.32867187 40.02734375 98.30078125 C38.56361328 98.24857422 38.56361328 98.24857422 37.0703125 98.1953125 C38.0703125 96.1953125 38.0703125 96.1953125 41.0703125 95.1953125 C42.63149678 95.12790385 44.1953377 95.11016794 45.7578125 95.1328125 C46.56605469 95.14183594 47.37429688 95.15085937 48.20703125 95.16015625 C48.82191406 95.17175781 49.43679688 95.18335938 50.0703125 95.1953125 C52.06506734 91.08113064 52.41389336 87.74775896 52.0703125 83.1953125 C51.0803125 82.2053125 51.0803125 82.2053125 50.0703125 81.1953125 C49.0803125 81.6903125 49.0803125 81.6903125 48.0703125 82.1953125 C48.0703125 83.1853125 48.0703125 84.1753125 48.0703125 85.1953125 C46.614058 85.86650799 45.15523383 86.53213057 43.6953125 87.1953125 C42.88320313 87.5665625 42.07109375 87.9378125 41.234375 88.3203125 C39.0703125 89.1953125 39.0703125 89.1953125 37.0703125 89.1953125 C36.7403125 89.8553125 36.4103125 90.5153125 36.0703125 91.1953125 C32.4878746 91.42156232 28.90446149 91.62318431 25.3203125 91.8203125 C24.30453125 91.88476562 23.28875 91.94921875 22.2421875 92.015625 C21.2625 92.0671875 20.2828125 92.11875 19.2734375 92.171875 C17.92233887 92.25042725 17.92233887 92.25042725 16.54394531 92.33056641 C13.85667115 92.18363097 12.41009972 91.45249832 10.0703125 90.1953125 C10.02403799 80.05993648 9.98846823 69.92458546 9.96668816 59.78912544 C9.95623653 55.08317467 9.94205228 50.37729599 9.91943359 45.67138672 C9.89775424 41.13267174 9.88575427 36.59402626 9.88055801 32.05526352 C9.87685341 30.32084941 9.86961956 28.58643924 9.85885239 26.8520546 C9.84440255 24.42879164 9.8423318 22.00581841 9.84326172 19.58251953 C9.83607117 18.86035248 9.82888062 18.13818542 9.82147217 17.39413452 C9.84220818 12.42341682 9.84220818 12.42341682 12.0703125 10.1953125 C12.7303125 9.8653125 13.3903125 9.5353125 14.0703125 9.1953125 C15.20381784 7.17861423 15.20381784 7.17861423 16.0703125 5.1953125 C17.3903125 5.5253125 18.7103125 5.8553125 20.0703125 6.1953125 C19.4103125 5.2053125 18.7503125 4.2153125 18.0703125 3.1953125 C15.60939834 2.7913761 15.60939834 2.7913761 12.8203125 2.9453125 C11.83933594 2.97109375 10.85835937 2.996875 9.84765625 3.0234375 C6.86752088 3.20786219 3.98990329 3.56404963 1.0703125 4.1953125 C1.0703125 4.5253125 1.0703125 4.8553125 1.0703125 5.1953125 C-0.5796875 5.1953125 -2.2296875 5.1953125 -3.9296875 5.1953125 C-4.2596875 5.8553125 -4.5896875 6.5153125 -4.9296875 7.1953125 C-4.9296875 5.86197917 -4.9296875 4.52864583 -4.9296875 3.1953125 C-7.5696875 3.1953125 -10.2096875 3.1953125 -12.9296875 3.1953125 C-12.9296875 2.8653125 -12.9296875 2.5353125 -12.9296875 2.1953125 C-8.455512 0.47355921 -4.78306007 -0.04232797 0 0 Z " fill="#110503" transform="translate(561.9296875,65.8046875)"/>
<path d="M0 0 C0.99 0.66 1.98 1.32 3 2 C3.1875 4.625 3.1875 4.625 3 7 C3.66 7 4.32 7 5 7 C4.7215625 7.8971875 4.7215625 7.8971875 4.4375 8.8125 C3.77906313 11.16408762 3.77906313 11.16408762 5 14 C5 19.33333333 5 24.66666667 5 30 C4.34 30 3.68 30 3 30 C3.21140625 30.55558594 3.4228125 31.11117187 3.640625 31.68359375 C4.12543257 34.80849469 3.20687589 36.28690024 1.75 39.0625 C1.31171875 39.91972656 0.8734375 40.77695313 0.421875 41.66015625 C-0.89121624 43.82098497 -2.05028459 45.40144301 -4 47 C-4.66 47 -5.32 47 -6 47 C-6.495 47.99 -6.495 47.99 -7 49 C-9.0625 49.625 -9.0625 49.625 -11 50 C-11 50.66 -11 51.32 -11 52 C-11.99 52.33 -12.98 52.66 -14 53 C-12.2984375 53.185625 -12.2984375 53.185625 -10.5625 53.375 C-9.386875 53.58125 -8.21125 53.7875 -7 54 C-6.67 54.66 -6.34 55.32 -6 56 C-18.64580165 56.44985065 -27.00180534 55.81868256 -37.15234375 47.81640625 C-39.02421485 45.97619471 -39.99059698 44.40459883 -41 42 C-41.66 42 -42.32 42 -43 42 C-46 36.25 -46 36.25 -46 34 C-43.5625 34.8125 -43.5625 34.8125 -41 36 C-40 39 -40 39 -40 41 C-38.59010548 42.80751177 -38.59010548 42.80751177 -36.75 44.625 C-36.14671875 45.25664062 -35.5434375 45.88828125 -34.921875 46.5390625 C-32.87161896 48.40344355 -32.87161896 48.40344355 -29 48 C-27.32774271 47.69595322 -25.65919896 47.36871088 -24 47 C-24 47.66 -24 48.32 -24 49 C-22.515 49.495 -22.515 49.495 -21 50 C-20.67 49.34 -20.34 48.68 -20 48 C-21.485 47.505 -21.485 47.505 -23 47 C-24.81810362 43.8532822 -26.62171024 40.65680103 -27 37 C-26.34 36.01 -25.68 35.02 -25 34 C-24.68546875 34.77085937 -24.3709375 35.54171875 -24.046875 36.3359375 C-23.61890625 37.33882812 -23.1909375 38.34171875 -22.75 39.375 C-22.33234375 40.37273437 -21.9146875 41.37046875 -21.484375 42.3984375 C-19.86630203 45.23432328 -19.05322514 46.00171798 -16 47 C-12.27784238 47.33837797 -9.72156101 47.29518405 -6.25 45.875 C-1.13831339 41.61526116 -0.04728238 35.28493439 1 29 C1.23622158 25.8468842 1.23902831 22.72279543 1.1875 19.5625 C1.17783203 18.32342896 1.17783203 18.32342896 1.16796875 17.05932617 C1.09572392 11.3231993 0.74645781 5.69174078 0 0 Z " fill="#110504" transform="translate(671,110)"/>
<path d="M0 0 C3.66164174 1.22054725 4.32487783 2.43814689 6.5 5.5625 C7.38171875 6.80193359 7.38171875 6.80193359 8.28125 8.06640625 C12.14393489 14.65930705 13.49189644 20.38874275 13.375 28 C13.38660156 28.75539062 13.39820313 29.51078125 13.41015625 30.2890625 C13.37432514 37.24029796 11.31451671 42.88089222 8 49 C7.34 49 6.68 49 6 49 C5.731875 49.804375 5.46375 50.60875 5.1875 51.4375 C4.795625 52.283125 4.40375 53.12875 4 54 C3.01 54.33 2.02 54.66 1 55 C1 55.66 1 56.32 1 57 C-1.24756784 58.15082685 -3.49781748 59.29576858 -5.75 60.4375 C-6.38421875 60.76298828 -7.0184375 61.08847656 -7.671875 61.42382812 C-16.24920121 65.7571648 -26.3563166 66.63983723 -35.76953125 64.31640625 C-44.65735028 60.56515514 -52.91740342 54.08732871 -56.8125 45.125 C-57.4003125 43.578125 -57.4003125 43.578125 -58 42 C-55.625 42.6875 -55.625 42.6875 -53 44 C-52.27095914 45.64034193 -51.61344757 47.31301918 -51 49 C-46.94691917 55.14499351 -41.50711941 57.78632632 -35 61 C-35 61.66 -35 62.32 -35 63 C-34.01 62.505 -34.01 62.505 -33 62 C-31.62451844 61.91691362 -30.24514204 61.89263984 -28.8671875 61.90234375 C-28.06152344 61.90556641 -27.25585938 61.90878906 -26.42578125 61.91210938 C-25.16314453 61.92467773 -25.16314453 61.92467773 -23.875 61.9375 C-22.60076172 61.94426758 -22.60076172 61.94426758 -21.30078125 61.95117188 C-19.20049091 61.96297126 -17.1002367 61.98090694 -15 62 C-14.505 61.01 -14.505 61.01 -14 60 C-12.35 60 -10.7 60 -9 60 C-8.67 58.68 -8.34 57.36 -8 56 C-5.36 55.67 -2.72 55.34 0 55 C0 54.34 0 53.68 0 53 C2.375 50.375 2.375 50.375 5 48 C5.66 48 6.32 48 7 48 C7.06058594 47.26394531 7.12117188 46.52789062 7.18359375 45.76953125 C7.26738281 44.79371094 7.35117187 43.81789062 7.4375 42.8125 C7.55931641 41.36810547 7.55931641 41.36810547 7.68359375 39.89453125 C7.97666151 37.21350398 8.42703754 34.6337014 9 32 C9.66 32 10.32 32 11 32 C10.814375 31.401875 10.62875 30.80375 10.4375 30.1875 C10 28 10 28 11 25 C10.34 24.67 9.68 24.34 9 24 C9.495 22.515 9.495 22.515 10 21 C9.54235325 19.08041329 9.54235325 19.08041329 8.6875 17.125 C8.40390625 16.42117187 8.1203125 15.71734375 7.828125 14.9921875 C7.55484375 14.33476563 7.2815625 13.67734375 7 13 C6.649375 12.0925 6.29875 11.185 5.9375 10.25 C5.04662039 8.11188894 4.06592507 6.05571263 3 4 C1.68 4.33 0.36 4.66 -1 5 C-0.67 3.35 -0.34 1.7 0 0 Z M7 25 C9 26 9 26 9 26 Z " fill="#0C0302" transform="translate(266,101)"/>
<path d="M0 0 C0.66 0.33 1.32 0.66 2 1 C2.66 1 3.32 1 4 1 C6.67113987 1.30036914 9.33399642 1.65599954 12 2 C12 2.66 12 3.32 12 4 C12.78375 4.0825 13.5675 4.165 14.375 4.25 C17 5 17 5 18.1875 6.5625 C20.31107941 12.93323824 21.31117194 18.5724884 21.1875 25.25 C21.18105469 25.9814624 21.17460937 26.7129248 21.16796875 27.46655273 C21.08113352 33.67052282 20.66565633 39.83079223 20 46 C20.66 46.33 21.32 46.66 22 47 C21.34 47 20.68 47 20 47 C20.185625 47.78375 20.37125 48.5675 20.5625 49.375 C21 52 21 52 20 54 C19.01 54 18.02 54 17 54 C17 54.66 17 55.32 17 56 C15.02 56.495 15.02 56.495 13 57 C13.33 57.66 13.66 58.32 14 59 C23.9 59 33.8 59 44 59 C43.505 57.02 43.505 57.02 43 55 C44.32 55.33 45.64 55.66 47 56 C47 57.98 47 59.96 47 62 C34.79 62 22.58 62 10 62 C10 60.02 10 58.04 10 56 C10.969375 55.54625 11.93875 55.0925 12.9375 54.625 C16.07079582 53.34213779 16.07079582 53.34213779 17 51 C17.11129479 48.21426335 17.16411788 45.4543091 17.16796875 42.66796875 C17.17129715 41.83920731 17.17462555 41.01044586 17.17805481 40.15657043 C17.18312271 38.40052852 17.18546318 36.64447696 17.18530273 34.88842773 C17.18748279 32.20865857 17.20562193 29.52930531 17.22460938 26.84960938 C17.22754465 25.14323057 17.22952855 23.43684982 17.23046875 21.73046875 C17.23765427 20.93134567 17.24483978 20.1322226 17.25224304 19.30888367 C17.23513574 15.11658596 17.06043707 11.76864397 15 8 C12.437202 5.681278 10.52769488 4.04406812 6.96875 3.94140625 C3.59915972 4.33745884 0.25773059 5.04982858 -3 6 C-3 3 -3 3 -1.5 1.3125 C-0.7575 0.6628125 -0.7575 0.6628125 0 0 Z " fill="#0C0201" transform="translate(360,102)"/>
<path d="M0 0 C1.1416414 3.4249242 0.99454799 5.89762043 0.875 9.5 C0.81285643 18.09356756 2.23301085 26.66617054 7 34 C9.93208229 36.44340191 11.68822321 36.96659534 15.5 37.375 C19.42465356 36.9545014 21.05622327 36.6255306 24 34 C28.21139088 26.64070079 29.1373848 19.50163819 29.5625 11.1875 C29.60568359 10.39923828 29.64886719 9.61097656 29.69335938 8.79882812 C29.79878321 6.86605785 29.89983094 4.93304974 30 3 C30.99 3 31.98 3 33 3 C33.05413245 5.89608593 33.09373641 8.79115195 33.125 11.6875 C33.14175781 12.50412109 33.15851563 13.32074219 33.17578125 14.16210938 C33.21223626 18.66430251 32.86955026 21.83874297 31 26 C31.30514002 29.72471396 31.30514002 29.72471396 32 33 C32.66 33 33.32 33 34 33 C34 33.66 34 34.32 34 35 C33.01 35.33 32.02 35.66 31 36 C30.34 35.01 29.68 34.02 29 33 C28.34 33.99 27.68 34.98 27 36 C26.34 36 25.68 36 25 36 C24.67 36.66 24.34 37.32 24 38 C21.8203125 38.88671875 21.8203125 38.88671875 19.125 39.6875 C18.24070313 39.95949219 17.35640625 40.23148438 16.4453125 40.51171875 C14 41 14 41 11 40 C11 39.34 11 38.68 11 38 C9.02 38 7.04 38 5 38 C4.54625 36.9275 4.0925 35.855 3.625 34.75 C2.77532246 32.75005146 1.91637645 30.84669016 0.875 28.9375 C-0.29476198 26.34731276 -0.59116281 23.80345501 -1 21 C-1.17015625 20.43539062 -1.3403125 19.87078125 -1.515625 19.2890625 C-2.21256805 15.99544453 -2.18429058 12.72563295 -2.1875 9.375 C-2.19974609 8.694375 -2.21199219 8.01375 -2.22460938 7.3125 C-2.22986355 5.54009244 -2.12215906 3.7682006 -2 2 C-1.34 1.34 -0.68 0.68 0 0 Z " fill="#0E0302" transform="translate(228,119)"/>
<path d="M0 0 C1.06863281 0.19464844 2.13726563 0.38929687 3.23828125 0.58984375 C4.45064453 0.82380859 4.45064453 0.82380859 5.6875 1.0625 C6.1825 2.5475 6.1825 2.5475 6.6875 4.0625 C6.15382813 3.90652344 5.62015625 3.75054687 5.0703125 3.58984375 C-2.16123062 1.70063439 -8.43872805 1.79607455 -15.5625 4.125 C-21.15320433 8.06390532 -24.79542899 13.3262467 -26.06640625 20.07421875 C-27.78840103 33.98684326 -22.30352533 45.46564767 -14 56.1875 C-10.60161566 60.48735879 -7.23291413 64.38100137 -2.8828125 67.75390625 C0.01398841 70.16790701 2.32508357 73.13760347 4.6875 76.0625 C4.3575 76.7225 4.0275 77.3825 3.6875 78.0625 C-1.15024145 74.04152009 -5.53642956 69.89310378 -9.59765625 65.0859375 C-10.72491403 63.75582468 -11.8782944 62.44734098 -13.05859375 61.1640625 C-20.07834159 53.50331319 -25.7287268 45.21156113 -28.3125 35.0625 C-28.539375 34.216875 -28.76625 33.37125 -29 32.5 C-30.03543836 24.42358082 -29.36311098 16.75947246 -24.8359375 9.7890625 C-18.2730802 1.72783595 -10.31870286 -1.92766977 0 0 Z " fill="#82362E" transform="translate(909.3125,74.9375)"/>
<path d="M0 0 C0.598125 0.309375 1.19625 0.61875 1.8125 0.9375 C4.08956772 2.10209704 4.08956772 2.10209704 7 3 C8 5 9 7 10 9 C10.99 9.33 11.98 9.66 13 10 C13 10.66 13 11.32 13 12 C10.6875 11.8125 10.6875 11.8125 8 11 C7.525625 10.175 7.05125 9.35 6.5625 8.5 C5.19103743 5.71978212 5.19103743 5.71978212 2.0625 5 C-0.92370273 4.79854133 -0.92370273 4.79854133 -3.16479492 5.92993164 C-6.12407604 9.26793146 -5.51257906 12.81398036 -5.42578125 17.12109375 C-5.42249313 18.01740005 -5.41920502 18.91370636 -5.41581726 19.83717346 C-5.40539368 21.73274999 -5.38543908 23.62829448 -5.35668945 25.52368164 C-5.31272191 28.42286749 -5.29526889 31.32122554 -5.28320312 34.22070312 C-5.26977418 36.06251191 -5.25484987 37.90431053 -5.23828125 39.74609375 C-5.22720085 41.04624672 -5.22720085 41.04624672 -5.21589661 42.37266541 C-5.20306137 43.18353104 -5.19022614 43.99439667 -5.17700195 44.82983398 C-5.16715775 45.54026352 -5.15731354 46.25069305 -5.14717102 46.98265076 C-4.99376643 49.08544675 -4.56963764 50.97354916 -4 53 C-4.99 53 -5.98 53 -7 53 C-8.84359979 47.51704491 -9.27011196 42.76517952 -9.1953125 37.00390625 C-9.1924826 36.17036118 -9.18965271 35.3368161 -9.18673706 34.47801208 C-9.17562289 31.8393564 -9.15053515 29.20105152 -9.125 26.5625 C-9.11495885 24.76367681 -9.10583499 22.96484825 -9.09765625 21.16601562 C-9.07571235 16.77721045 -9.04124387 12.38866452 -9 8 C-8.34 8 -7.68 8 -7 8 C-7 7.34 -7 6.68 -7 6 C-6.34 6 -5.68 6 -5 6 C-4.34 4.68 -3.68 3.36 -3 2 C-2.01 2 -1.02 2 0 2 C0 1.34 0 0.68 0 0 Z " fill="#0C0202" transform="translate(185,104)"/>
<path d="M0 0 C1.06546953 3.1964086 1.07427838 5.65747276 1 9 C0.34 9 -0.32 9 -1 9 C-1.33 9.66 -1.66 10.32 -2 11 C-4.0625 12.125 -4.0625 12.125 -6 13 C-4.35 13.33 -2.7 13.66 -1 14 C-1 14.66 -1 15.32 -1 16 C8.9 15.67 18.8 15.34 29 15 C29.33 13.68 29.66 12.36 30 11 C30.66 11 31.32 11 32 11 C32 13.31 32 15.62 32 18 C17.81 18 3.62 18 -11 18 C-11 16.02 -11 14.04 -11 12 C-9.35546875 10.56640625 -9.35546875 10.56640625 -7.1875 9.5625 C-2.61686056 7.08707404 -1.53547755 4.8943347 0 0 Z " fill="#0C0303" transform="translate(77,146)"/>
<path d="M0 0 C0.66 0 1.32 0 2 0 C1.67 1.65 1.34 3.3 1 5 C0.01 5.33 -0.98 5.66 -2 6 C-2.33 6.66 -2.66 7.32 -3 8 C-3.66 7.67 -4.32 7.34 -5 7 C-5 8.32 -5 9.64 -5 11 C-4.36191406 10.67 -3.72382813 10.34 -3.06640625 10 C1.05337595 8.65647867 4.76603691 8.86129256 9.0625 9 C15.88658003 9.5119128 15.88658003 9.5119128 22 7 C22.33 6.34 22.66 5.68 23 5 C22.01 4.67 21.02 4.34 20 4 C20 3.01 20 2.02 20 1 C20.66 1 21.32 1 22 1 C22.680625 1.7115625 22.680625 1.7115625 23.375 2.4375 C25.22977487 4.22093737 26.50135592 4.5691993 29 5 C29 7.31 29 9.62 29 12 C17.12 12 5.24 12 -7 12 C-8 7 -8 7 -7 5 C-6.01 4.690625 -5.02 4.38125 -4 4.0625 C-2.515 3.5365625 -2.515 3.5365625 -1 3 C-0.67 2.01 -0.34 1.02 0 0 Z " fill="#0B0202" transform="translate(334,152)"/>
<path d="M0 0 C0.66 0 1.32 0 2 0 C2.02313993 9.22270478 2.04092354 18.44539961 2.05181217 27.66812706 C2.05703738 31.95031126 2.06412848 36.23247564 2.07543945 40.51464844 C2.08628117 44.64487529 2.09227957 48.77508305 2.09487724 52.90532303 C2.09672917 54.4834282 2.10034535 56.06153229 2.10573006 57.63962936 C2.11295752 59.84489984 2.11399022 62.05009074 2.11352539 64.25537109 C2.115746 65.51223724 2.11796661 66.76910339 2.12025452 68.0640564 C2 71 2 71 1 73 C0.34 73 -0.32 73 -1 73 C-1 73.66 -1 74.32 -1 75 C-2.32 74.67 -3.64 74.34 -5 74 C-4.35125916 73.48189758 -3.70251831 72.96379517 -3.03411865 72.42999268 C-0.33231746 69.2023751 -0.4841535 67.29733704 -0.45410156 63.12011719 C-0.44376389 62.43678314 -0.43342621 61.7534491 -0.42277527 61.04940796 C-0.39335644 58.79832285 -0.3918484 56.5481372 -0.390625 54.296875 C-0.37564259 52.73315721 -0.35891531 51.16945524 -0.34051514 49.60577393 C-0.29683557 45.4958422 -0.27684139 41.38612393 -0.26177979 37.27600098 C-0.24221073 33.07970555 -0.20024055 28.88364073 -0.16015625 24.6875 C-0.08484768 16.45839366 -0.03456037 8.22937787 0 0 Z " fill="#0B0100" transform="translate(553,82)"/>
<path d="M0 0 C1.04876816 -0.00960754 2.09753632 -0.01921509 3.17808533 -0.02911377 C4.32273758 -0.03336365 5.46738983 -0.03761353 6.64672852 -0.04199219 C7.82018326 -0.04769226 8.993638 -0.05339233 10.20265198 -0.05926514 C12.69694105 -0.06873768 15.19124277 -0.07525801 17.68554688 -0.07910156 C21.47817416 -0.08874649 25.27024562 -0.11972389 29.06274414 -0.15136719 C31.48656905 -0.15790308 33.91039784 -0.16315125 36.33422852 -0.16699219 C38.02387978 -0.18551239 38.02387978 -0.18551239 39.74766541 -0.20440674 C55.41377554 -0.16075814 55.41377554 -0.16075814 60.86253357 4.76531982 C61.26698196 5.22593811 61.67143036 5.6865564 62.08813477 6.16113281 C60.76813477 6.49113281 59.44813477 6.82113281 58.08813477 7.16113281 C58.08813477 6.50113281 58.08813477 5.84113281 58.08813477 5.16113281 C57.30438477 5.01675781 56.52063477 4.87238281 55.71313477 4.72363281 C53.08813477 4.16113281 53.08813477 4.16113281 51.08813477 3.16113281 C49.35091319 3.00664372 47.60828981 2.91116805 45.86547852 2.84472656 C44.78049072 2.80275146 43.69550293 2.76077637 42.57763672 2.7175293 C41.40547607 2.67829346 40.23331543 2.63905762 39.02563477 2.59863281 C37.83091553 2.55617432 36.63619629 2.51371582 35.40527344 2.4699707 C23.29915047 2.07462652 11.19911725 2.05816174 -0.91186523 2.16113281 C-0.58186523 3.48113281 -0.25186523 4.80113281 0.08813477 6.16113281 C-0.57186523 5.83113281 -1.23186523 5.50113281 -1.91186523 5.16113281 C-1.91186523 3.84113281 -1.91186523 2.52113281 -1.91186523 1.16113281 C-2.57186523 1.82113281 -3.23186523 2.48113281 -3.91186523 3.16113281 C-3.91186523 3.82113281 -3.91186523 4.48113281 -3.91186523 5.16113281 C-1.44859812 6.80580021 -1.44859812 6.80580021 1.08813477 8.16113281 C0.09813477 8.65613281 0.09813477 8.65613281 -0.91186523 9.16113281 C-3.53686523 8.22363281 -3.53686523 8.22363281 -5.91186523 7.16113281 C-5.9544088 5.16158535 -5.95267306 3.16071645 -5.91186523 1.16113281 C-4.25309176 -0.49764066 -2.28192521 0.0168094 0 0 Z " fill="#0B0302" transform="translate(71.911865234375,64.8388671875)"/>
<path d="M0 0 C0.99 0 1.98 0 3 0 C5.1519437 3.22791555 5.20086443 4.28400809 5 8 C5.66 8.33 6.32 8.66 7 9 C6.34 9 5.68 9 5 9 C5.16200394 9.55603912 5.32400787 10.11207825 5.49092102 10.68496704 C6.04498977 13.20459066 6.13407877 15.46120353 6.14526367 18.04052734 C6.15483345 19.54261246 6.15483345 19.54261246 6.16459656 21.07504272 C6.16570938 22.151138 6.1668222 23.22723328 6.16796875 24.3359375 C6.17129715 25.44804596 6.17462555 26.56015442 6.17805481 27.70596313 C6.18311599 30.05787747 6.18546338 32.40979898 6.18530273 34.76171875 C6.1874874 38.35428746 6.20564697 41.94654818 6.22460938 45.5390625 C6.22754384 47.82551978 6.22952828 50.11197853 6.23046875 52.3984375 C6.24124702 54.00650772 6.24124702 54.00650772 6.25224304 55.64706421 C6.23643134 60.82590065 6.09662961 65.16066516 4 70 C3.67 70 3.34 70 3 70 C2.99191315 69.18202942 2.98382629 68.36405884 2.97549438 67.52130127 C2.89754036 59.81114668 2.81024734 52.10118111 2.71247292 44.39125443 C2.66253574 40.42753853 2.61620556 36.46384895 2.578125 32.5 C2.54123948 28.6743701 2.49487082 24.84896174 2.44193649 21.02352142 C2.42340987 19.56433754 2.40829549 18.1051062 2.39665604 16.64585114 C2.37976362 14.60123529 2.35072247 12.5571249 2.31884766 10.51269531 C2.30552399 9.34909485 2.29220032 8.18549438 2.2784729 6.9866333 C2.01063277 4.11403687 1.49616972 2.43179409 0 0 Z " fill="#0D0101" transform="translate(73,74)"/>
<path d="M0 0 C4.44615526 2.47008626 7.99021294 4.7129371 10.09399414 9.4777832 C11.31004661 14.20534691 11.29781984 18.68063913 11.30859375 23.54296875 C11.33373363 25.60612286 11.35913191 27.66927384 11.38476562 29.73242188 C11.41360096 32.97159138 11.43763372 36.21070685 11.45629883 39.44995117 C11.47788005 42.5853937 11.51728906 45.72023329 11.55859375 48.85546875 C11.55870956 49.82735641 11.55882538 50.79924408 11.5589447 51.80058289 C11.57228348 52.70194473 11.58562225 53.60330658 11.59936523 54.53198242 C11.60443588 55.32440842 11.60950653 56.11683441 11.61473083 56.93327332 C12.08932588 59.47917713 13.03675623 60.37512397 15 62 C14.67 62.66 14.34 63.32 14 64 C11.15038701 61.83254906 9.31666335 60.40482185 8.51425171 56.84506226 C8.32567726 54.1829848 8.28176337 51.55550654 8.29296875 48.88671875 C8.27028679 47.43239189 8.27028679 47.43239189 8.24714661 45.94868469 C8.20426509 42.86138663 8.19543101 39.77506622 8.1875 36.6875 C8.1643561 34.59046879 8.13899099 32.49346084 8.11132812 30.39648438 C8.04847095 25.26423647 8.01613925 20.13259887 8 15 C7.34 14.67 6.68 14.34 6 14 C6.33 13.01 6.66 12.02 7 11 C5.62831762 8.80961577 5.62831762 8.80961577 4 7 C4.33 6.34 4.66 5.68 5 5 C4.01 5.33 3.02 5.66 2 6 C1.01 4.68 0.02 3.36 -1 2 C-0.67 1.34 -0.34 0.68 0 0 Z " fill="#0D0303" transform="translate(387,95)"/>
<path d="M0 0 C1.9375 1.4375 1.9375 1.4375 3 3 C3 3.66 3 4.32 3 5 C-0.63 4.01 -4.26 3.02 -8 2 C-8.66 2.99 -9.32 3.98 -10 5 C-10.763125 5.268125 -11.52625 5.53625 -12.3125 5.8125 C-16.04348879 7.46107644 -17.54394062 9.77203624 -20 13 C-22.475 12.505 -22.475 12.505 -25 12 C-25 8.7 -25 5.4 -25 2 C-26.53720703 2.41572266 -26.53720703 2.41572266 -28.10546875 2.83984375 C-29.46612331 3.20581291 -30.82680166 3.57169365 -32.1875 3.9375 C-32.86103516 4.11990234 -33.53457031 4.30230469 -34.22851562 4.49023438 C-36.14915439 5.0055277 -38.07450454 5.50316231 -40 6 C-40.90363281 6.24878906 -41.80726563 6.49757813 -42.73828125 6.75390625 C-45.4820998 7.05245646 -46.624183 6.29791447 -49 5 C-45.23027682 4.16159002 -41.4590511 3.3301451 -37.6875 2.5 C-36.61564453 2.26152344 -35.54378906 2.02304688 -34.43945312 1.77734375 C-33.41142578 1.55175781 -32.38339844 1.32617188 -31.32421875 1.09375 C-30.37635498 0.88427734 -29.42849121 0.67480469 -28.4519043 0.45898438 C-26 0 -26 0 -23 0 C-22.67 3.3 -22.34 6.6 -22 10 C-21.278125 9.2575 -20.55625 8.515 -19.8125 7.75 C-13.50321531 1.58092164 -9.08400945 -2.18689116 0 0 Z " fill="#0B0303" transform="translate(201,93)"/>
<path d="M0 0 C1.32 0 2.64 0 4 0 C4 0.66 4 1.32 4 2 C5.32 2 6.64 2 8 2 C8.33 2.66 8.66 3.32 9 4 C11.60423592 4.02697137 14.20819244 4.04682489 16.8125 4.0625 C17.55048828 4.07087891 18.28847656 4.07925781 19.04882812 4.08789062 C22.29922068 4.10259828 24.89404895 4.03531702 28 3 C30.26171875 3.33984375 30.26171875 3.33984375 32.6875 3.9375 C33.49574219 4.13214844 34.30398437 4.32679688 35.13671875 4.52734375 C35.75160156 4.68332031 36.36648437 4.83929688 37 5 C37 4.01 37 3.02 37 2 C35.35 2 33.7 2 32 2 C32 1.34 32 0.68 32 0 C33.99954746 -0.04254356 36.00041636 -0.04080783 38 0 C39 1 39 1 39 7 C25.8 7 12.6 7 -1 7 C-1 1 -1 1 0 0 Z " fill="#0B0202" transform="translate(151,157)"/>
<path d="M0 0 C1.32 0.33 2.64 0.66 4 1 C3.34 1 2.68 1 2 1 C2.66 1.99 3.32 2.98 4 4 C4.66 4 5.32 4 6 4 C6.33 3.34 6.66 2.68 7 2 C7 2.66 7 3.32 7 4 C8.423125 3.98259766 8.423125 3.98259766 9.875 3.96484375 C18.84387867 3.89193516 27.78784406 4.07882319 36.75 4.4375 C37.78511719 4.47673584 38.82023438 4.51597168 39.88671875 4.55639648 C41.35818359 4.61935913 41.35818359 4.61935913 42.859375 4.68359375 C44.16600098 4.73858032 44.16600098 4.73858032 45.49902344 4.79467773 C48.06106517 5.00501326 50.49146705 5.44707706 53 6 C53 6.33 53 6.66 53 7 C45.61271898 7.02526692 38.22544902 7.0428316 30.83813477 7.05493164 C28.32283105 7.05997363 25.80753028 7.06680703 23.29223633 7.07543945 C19.68570225 7.08751094 16.07920677 7.09322949 12.47265625 7.09765625 C10.77424339 7.10539818 10.77424339 7.10539818 9.04151917 7.11329651 C8.00051559 7.11337204 6.95951202 7.11344757 5.88696289 7.11352539 C4.96540909 7.115746 4.04385529 7.11796661 3.09437561 7.12025452 C1 7 1 7 0 6 C-0.04080783 4.00041636 -0.04254356 1.99954746 0 0 Z " fill="#0D0201" transform="translate(544,157)"/>
<path d="M0 0 C2.625 0.9375 2.625 0.9375 5 2 C3.66666667 3.33333333 2.33333333 4.66666667 1 6 C1.66 6.33 2.32 6.66 3 7 C3 7.66 3 8.32 3 9 C3.99 8.67 4.98 8.34 6 8 C6 8.66 6 9.32 6 10 C16.17160927 9.44589633 16.17160927 9.44589633 26 7 C26.33 7.66 26.66 8.32 27 9 C20.13010445 12.23289202 13.55487334 12.95607578 6 12 C4.02 11.01 2.04 10.02 0 9 C-0.33 14.28 -0.66 19.56 -1 25 C-1.99 25 -2.98 25 -4 25 C-4 18 -4 11 -4 4 C-3.01 3.67 -2.02 3.34 -1 3 C-1.33 2.34 -1.66 1.68 -2 1 C-1.34 0.67 -0.68 0.34 0 0 Z " fill="#0B0201" transform="translate(439,154)"/>
<path d="M0 0 C0.68429077 -0.00095673 1.36858154 -0.00191345 2.0736084 -0.00289917 C3.52286877 -0.0035808 4.97213218 -0.00172773 6.42138672 0.00244141 C8.64687928 0.00778998 10.87217001 0.0024959 13.09765625 -0.00390625 C14.50260461 -0.00324547 15.90755285 -0.0019643 17.3125 0 C18.59962891 0.00112793 19.88675781 0.00225586 21.21289062 0.00341797 C24.15625 0.1328125 24.15625 0.1328125 25.15625 1.1328125 C25.19688832 2.79898365 25.198971 4.46669345 25.15625 6.1328125 C23.50625 6.4628125 21.85625 6.7928125 20.15625 7.1328125 C20.81625 10.7628125 21.47625 14.3928125 22.15625 18.1328125 C21.16625 17.8028125 20.17625 17.4728125 19.15625 17.1328125 C18.7841458 15.80977533 18.44994827 14.47543315 18.15625 13.1328125 C17.49625 12.8028125 16.83625 12.4728125 16.15625 12.1328125 C16.81625 12.1328125 17.47625 12.1328125 18.15625 12.1328125 C18.15625 10.8128125 18.15625 9.4928125 18.15625 8.1328125 C17.16625 7.8028125 16.17625 7.4728125 15.15625 7.1328125 C16.14625 6.8028125 17.13625 6.4728125 18.15625 6.1328125 C20.34663423 4.76113012 20.34663423 4.76113012 22.15625 3.1328125 C22.15625 2.4728125 22.15625 1.8128125 22.15625 1.1328125 C21.34285156 1.28492187 20.52945313 1.43703125 19.69140625 1.59375 C15.65703169 2.2089364 11.66456973 2.51605203 7.59375 2.7578125 C6.4809668 2.83515625 6.4809668 2.83515625 5.34570312 2.9140625 C1.43545937 3.15083594 -2.04596409 3.14054183 -5.84375 2.1328125 C-5.84375 3.4528125 -5.84375 4.7728125 -5.84375 6.1328125 C-6.50375 6.1328125 -7.16375 6.1328125 -7.84375 6.1328125 C-7.886471 4.46669345 -7.88438832 2.79898365 -7.84375 1.1328125 C-5.93525052 -0.77568698 -2.52896226 0.00221617 0 0 Z " fill="#090202" transform="translate(698.84375,94.8671875)"/>
<path d="M0 0 C0.4140625 2.06640625 0.4140625 2.06640625 0.625 4.5625 C0.69976563 5.38878906 0.77453125 6.21507813 0.8515625 7.06640625 C0.90054688 7.70449219 0.94953125 8.34257813 1 9 C1.49628906 8.44570312 1.99257813 7.89140625 2.50390625 7.3203125 C6.80931066 2.72897042 9.73578429 0.04403595 16 -1 C16 -0.34 16 0.32 16 1 C14.3603125 1.61875 14.3603125 1.61875 12.6875 2.25 C9.44280475 3.61722038 7.94975511 5.02405799 6 8 C5.34 8 4.68 8 4 8 C3.67 9.32 3.34 10.64 3 12 C2.34 12 1.68 12 1 12 C0.67 12.66 0.34 13.32 0 14 C-0.66 13.67 -1.32 13.34 -2 13 C-2 9.7 -2 6.4 -2 3 C-6.58241435 0.70879282 -13.81497407 3.33674868 -18.53515625 4.76953125 C-22.0357327 5.92340084 -22.0357327 5.92340084 -25 8 C-24.67 8.99 -24.34 9.98 -24 11 C-25.32 10.67 -26.64 10.34 -28 10 C-28 8.35 -28 6.7 -28 5 C-3.57849089 -1.78924545 -3.57849089 -1.78924545 0 0 Z " fill="#0B0302" transform="translate(851,94)"/>
<path d="M0 0 C0.495 1.485 0.495 1.485 1 3 C-17.29359488 19.05115422 -17.29359488 19.05115422 -24 22 C-31.66593994 20.14682233 -38.21219104 13.06433284 -44 8 C-40.33020756 8 -39.00368468 8.94870315 -36 11 C-34.66666667 12.33333333 -33.33333333 13.66666667 -32 15 C-30.02369593 16.36821051 -28.02790984 17.70951192 -26 19 C-23.20805669 17.68335805 -20.78422674 16.21168677 -18.3203125 14.35546875 C-17.63839844 13.84306641 -16.95648437 13.33066406 -16.25390625 12.80273438 C-15.55136719 12.26970703 -14.84882812 11.73667969 -14.125 11.1875 C-13.43019531 10.66607422 -12.73539063 10.14464844 -12.01953125 9.60742188 C-7.91531855 6.51187162 -3.92082344 3.32471078 0 0 Z " fill="#87362D" transform="translate(959,146)"/>
<path d="M0 0 C0.99 0.33 1.98 0.66 3 1 C3 2.32 3 3.64 3 5 C-3.47882271 8.61608709 -9.69245425 8.51350321 -17 8 C-17.99 7.67 -18.98 7.34 -20 7 C-20 6.34 -20 5.68 -20 5 C-20.99 4.67 -21.98 4.34 -23 4 C-21 2 -21 2 -18 1 C-15.40260925 1.38010596 -13.35008451 1.82495775 -11 3 C-9.00103089 2.68236347 -9.00103089 2.68236347 -6.875 2.0625 C-6.15054687 1.86785156 -5.42609375 1.67320312 -4.6796875 1.47265625 C-4.12539063 1.31667969 -3.57109375 1.16070312 -3 1 C-3 2.32 -3 3.64 -3 5 C-1.45833358 3.62514468 -1.45833358 3.62514468 0 2 C0 1.34 0 0.68 0 0 Z " fill="#1A0A07" transform="translate(462,156)"/>
<path d="M0 0 C0.33 0.99 0.66 1.98 1 3 C0.53311768 3.53625 0.06623535 4.0725 -0.41479492 4.625 C-2.836757 8.25365349 -2.40997879 11.73191084 -2.36328125 16 C-2.36377975 16.87269531 -2.36427826 17.74539062 -2.36479187 18.64453125 C-2.3624546 20.48700237 -2.3527465 22.32947687 -2.33618164 24.171875 C-2.31258479 26.9898742 -2.31562387 29.80692706 -2.32226562 32.625 C-2.31668868 34.4166723 -2.30957869 36.20834062 -2.30078125 38 C-2.30169266 38.84175781 -2.30260406 39.68351562 -2.30354309 40.55078125 C-2.29401108 41.33839844 -2.28447906 42.12601563 -2.2746582 42.9375 C-2.27005081 43.62714844 -2.26544342 44.31679687 -2.26069641 45.02734375 C-1.95507713 47.33992555 -1.1376653 48.97883411 0 51 C-3.465 51.495 -3.465 51.495 -7 52 C-6.67 51.34 -6.34 50.68 -6 50 C-5.98591876 46.95807663 -6.03074855 43.9379905 -6.11328125 40.8984375 C-6.14543398 39.02736981 -6.17598101 37.15627396 -6.20507812 35.28515625 C-6.25429899 32.33533263 -6.31215196 29.3869969 -6.39770508 26.43798828 C-6.47695449 23.59123459 -6.51702234 20.74604916 -6.55078125 17.8984375 C-6.58488602 17.02730316 -6.61899078 16.15616882 -6.65412903 15.25863647 C-6.68378178 8.54153683 -4.51312043 4.89308803 0 0 Z " fill="#0B0201" transform="translate(314,106)"/>
<path d="M0 0 C0.66 0.33 1.32 0.66 2 1 C2 2.32 2 3.64 2 5 C2.33 4.01 2.66 3.02 3 2 C3.66 2 4.32 2 5 2 C5 2.99 5 3.98 5 5 C15.56 4.67 26.12 4.34 37 4 C37.33 3.01 37.66 2.02 38 1 C38.33 1 38.66 1 39 1 C39 2.98 39 4.96 39 7 C33.32169922 7.02464705 27.64342931 7.04283462 21.96508789 7.05493164 C20.03181415 7.05997256 18.09854424 7.06680519 16.1652832 7.07543945 C13.39273128 7.08751565 10.62022959 7.09323057 7.84765625 7.09765625 C6.54297142 7.10539818 6.54297142 7.10539818 5.21192932 7.11329651 C3.14094186 7.11349185 1.07005676 7.06208168 -1 7 C-2 6 -2 6 -2.0625 3.4375 C-2.041875 2.633125 -2.02125 1.82875 -2 1 C-1.34 0.67 -0.68 0.34 0 0 Z " fill="#090202" transform="translate(411,186)"/>
<path d="M0 0 C2.30078125 2.140625 2.30078125 2.140625 4 4 C1.0625 3.625 1.0625 3.625 -2 3 C-2.495 2.01 -2.495 2.01 -3 1 C-3.9075 1.04125 -4.815 1.0825 -5.75 1.125 C-8.95126252 1.00187452 -10.27989692 0.50074653 -13 -1 C-13.99 -1 -14.98 -1 -16 -1 C-16.99 -1.33 -17.98 -1.66 -19 -2 C-21.21652529 -1.80738004 -23.42607713 -1.5263584 -25.625 -1.1875 C-27.37683594 -0.93033203 -27.37683594 -0.93033203 -29.1640625 -0.66796875 C-30.56785156 -0.33732422 -30.56785156 -0.33732422 -32 0 C-32.33 0.66 -32.66 1.32 -33 2 C-34.31403276 2.70394612 -35.6520257 3.36345658 -37 4 C-38.299375 4.8353125 -38.299375 4.8353125 -39.625 5.6875 C-40.40875 6.120625 -41.1925 6.55375 -42 7 C-42.66 6.67 -43.32 6.34 -44 6 C-32.31943781 -5.42099414 -14.56812648 -8.12404988 0 0 Z " fill="#0D0303" transform="translate(262,97)"/>
<path d="M0 0 C0.66 0 1.32 0 2 0 C4.05110216 3.07665324 4.25307772 3.73236402 4.2746582 7.20849609 C4.28419022 8.05302338 4.29372223 8.89755066 4.30354309 9.76766968 C4.30263168 10.67707306 4.30172028 11.58647644 4.30078125 12.5234375 C4.30506638 13.46176422 4.3093515 14.40009094 4.31376648 15.36685181 C4.31951039 17.35230706 4.32000959 19.33778336 4.31567383 21.32324219 C4.31251925 24.3564869 4.33595355 27.38875128 4.36132812 30.421875 C4.36360169 32.35156127 4.36430435 34.28125016 4.36328125 36.2109375 C4.372491 37.11629242 4.38170074 38.02164734 4.39118958 38.95443726 C4.35644964 43.69979453 4.29586149 47.26188697 1 51 C0.01 51 -0.98 51 -2 51 C-1.51176758 50.3716626 -1.02353516 49.7433252 -0.52050781 49.09594727 C1.5801232 44.8187954 1.39405737 41.16591287 1.328125 36.46484375 C1.32625183 35.5491713 1.32437866 34.63349884 1.32244873 33.69007874 C1.31574192 31.75941308 1.30185474 29.82876071 1.28125 27.89819336 C1.25007251 24.94437005 1.2402736 21.99108103 1.234375 19.03710938 C1.22520508 17.15884767 1.21482935 15.28059138 1.203125 13.40234375 C1.19675018 12.07879128 1.19675018 12.07879128 1.19024658 10.72850037 C1.18063904 9.90406937 1.17103149 9.07963837 1.16113281 8.23022461 C1.15430481 7.50806259 1.14747681 6.78590057 1.14044189 6.04185486 C0.9949415 3.92645551 0.57505748 2.03718429 0 0 Z " fill="#090100" transform="translate(157,106)"/>
<path d="M0 0 C5.36754049 2.99583655 8.58611416 6.28623277 11 12 C13.5804502 21.68586046 13.68218726 29.70093501 8.625 38.4375 C6.78655865 41.37307571 5.19295346 42.64808992 2 44 C2 44.66 2 45.32 2 46 C0.68 46.66 -0.64 47.32 -2 48 C-2 47.01 -2 46.02 -2 45 C2.34285714 41 2.34285714 41 5 41 C5 39.68 5 38.36 5 37 C5.99 37 6.98 37 8 37 C10.49787328 26.51785319 11.48971214 18.68101017 6.2890625 8.93359375 C5.13970058 6.86312573 5.13970058 6.86312573 3 6 C3 5.01 3 4.02 3 3 C2.01 2.67 1.02 2.34 0 2 C0 1.34 0 0.68 0 0 Z " fill="#0C0302" transform="translate(135,71)"/>
<path d="M0 0 C1.32 0.66 2.64 1.32 4 2 C4 2.66 4 3.32 4 4 C5.71885317 5.73888091 5.71885317 5.73888091 7.875 7.5 C9.99035504 9.28933258 12.04019124 11.04019124 14 13 C14 13.99 14 14.98 14 16 C15.32 16.66 16.64 17.32 18 18 C17.01 20.64 16.02 23.28 15 26 C14.67 26 14.34 26 14 26 C13.91363281 25.443125 13.82726562 24.88625 13.73828125 24.3125 C12.44704335 17.29953817 10.07873208 11.74589618 4.6875 6.9375 C0.94578851 5.63225181 -2.29369608 5.73716661 -6 7 C-8.98246784 9.39545381 -8.98246784 9.39545381 -11 12 C-11.66 11.67 -12.32 11.34 -13 11 C-13 9 -13 9 -11.5 7.375 C-11.005 6.92125 -10.51 6.4675 -10 6 C-10.99 5.67 -11.98 5.34 -13 5 C-10.03 5.495 -10.03 5.495 -7 6 C-6.67 5.01 -6.34 4.02 -6 3 C-5.195625 2.87625 -4.39125 2.7525 -3.5625 2.625 C-2.716875 2.41875 -1.87125 2.2125 -1 2 C-0.67 1.34 -0.34 0.68 0 0 Z " fill="#0C0302" transform="translate(243,96)"/>
<path d="M0 0 C2.4375 0.8125 2.4375 0.8125 5 2 C6 5 6 5 6 7 C9.66658456 11.50187158 13.60776629 14.77277303 19 17 C19.72445312 17.34417969 20.44890625 17.68835938 21.1953125 18.04296875 C25.33936285 19.45702493 29.49230727 19.42771982 33.82421875 19.56640625 C35.55372969 19.64517606 37.27858059 19.81526231 39 20 C39.495 20.99 39.495 20.99 40 22 C27.35419835 22.44985065 18.99819466 21.81868256 8.84765625 13.81640625 C6.97578515 11.97619471 6.00940302 10.40459883 5 8 C4.34 8 3.68 8 3 8 C0 2.25 0 2.25 0 0 Z " fill="#0B0202" transform="translate(625,144)"/>
<path d="M0 0 C5.61 0 11.22 0 17 0 C17.09765625 6.93359375 17.09765625 6.93359375 17 9 C16 10 16 10 14.23413086 10.11352539 C13.48526611 10.10828857 12.73640137 10.10305176 11.96484375 10.09765625 C11.15595703 10.09443359 10.34707031 10.09121094 9.51367188 10.08789062 C8.66353516 10.07951172 7.81339844 10.07113281 6.9375 10.0625 C6.08349609 10.05798828 5.22949219 10.05347656 4.34960938 10.04882812 C2.23304337 10.03700373 0.11651315 10.01906769 -2 10 C-2 11.65 -2 13.3 -2 15 C-2.33 14.34 -2.66 13.68 -3 13 C-3.66 13 -4.32 13 -5 13 C-4.67 11.35 -4.34 9.7 -4 8 C2.27 8 8.54 8 15 8 C14.67 6.35 14.34 4.7 14 3 C9.38 2.34 4.76 1.68 0 1 C0 0.67 0 0.34 0 0 Z " fill="#070101" transform="translate(520,95)"/>
<path d="M0 0 C4.17847455 0.47482665 6.92677052 1.04059383 10 4 C11.36887494 8.10662483 11.88760186 11.87143819 10.17578125 15.9765625 C7.54658606 20.72670697 7.54658606 20.72670697 5 22 C3.00039988 22.039992 0.99952758 22.04346799 -1 22 C-1.33 21.34 -1.66 20.68 -2 20 C-0.7934375 20.0309375 -0.7934375 20.0309375 0.4375 20.0625 C2.93354885 20.29633621 2.93354885 20.29633621 4 19 C3.01 18.01 2.02 17.02 1 16 C2.32 16 3.64 16 5 16 C5.33 15.67 5.66 15.34 6 15 C6.66 15 7.32 15 8 15 C7.55745705 10.39755333 7.09881858 7.48617091 4 4 C3.67 3.34 3.34 2.68 3 2 C2.01 2.495 2.01 2.495 1 3 C0.67 2.01 0.34 1.02 0 0 Z " fill="#120404" transform="translate(868,93)"/>
<path d="M0 0 C0.66 0.33 1.32 0.66 2 1 C-5.56066699 7.49914068 -13.89161771 11.69948622 -24.05078125 11.20703125 C-26.41134498 10.95631005 -28.7005062 10.59341775 -31 10 C-30.34 9.01 -29.68 8.02 -29 7 C-28.34 7.33 -27.68 7.66 -27 8 C-26.67 7.34 -26.34 6.68 -26 6 C-26 6.66 -26 7.32 -26 8 C-19.98001986 8.21802745 -14.64051572 8.28020848 -9 6 C-8.67 5.01 -8.34 4.02 -8 3 C-7.01 3 -6.02 3 -5 3 C-4.154375 2.484375 -3.30875 1.96875 -2.4375 1.4375 C-1.2309375 0.7259375 -1.2309375 0.7259375 0 0 Z " fill="#0B0201" transform="translate(812,156)"/>
<path d="M0 0 C4.86596942 4.86596942 5.23291277 12.50517435 5.375 19.0625 C5.25886808 24.96587262 4.25020636 29.5620013 2 35 C1.34 34.34 0.68 33.68 0 33 C0.375 29.875 0.375 29.875 1 27 C1.66 27 2.32 27 3 27 C2.814375 26.278125 2.62875 25.55625 2.4375 24.8125 C2 22 2 22 2.625 19.375 C2.74875 18.59125 2.8725 17.8075 3 17 C2.0206121 15.97980427 1.02104551 14.97850195 0 14 C0.375 12.125 0.375 12.125 1 10 C0.69972883 8.32706064 0.36442233 6.66014616 0 5 C-0.0370279 3.3337447 -0.04759962 1.66598681 0 0 Z M0 22 C0.66 22.66 1.32 23.32 2 24 C1.34 24 0.68 24 0 24 C0 23.34 0 22.68 0 22 Z " fill="#0F0403" transform="translate(482,109)"/>
<path d="M0 0 C0.66 0.33 1.32 0.66 2 1 C2 1.66 2 2.32 2 3 C1.34 3 0.68 3 0 3 C0.65585189 6.60992379 0.65585189 6.60992379 2 10 C0.68 10 -0.64 10 -2 10 C-3.89919217 15.68985622 -4.40686558 20.96152572 -4.625 26.9375 C-4.66367188 27.81212891 -4.70234375 28.68675781 -4.7421875 29.58789062 C-4.8356107 31.72494631 -4.91885398 33.86244294 -5 36 C-7.41905012 32.37142481 -7.34543083 29.63666475 -7.3125 25.4375 C-7.30831055 24.72021729 -7.30412109 24.00293457 -7.29980469 23.26391602 C-7.11286519 14.4250586 -4.69645669 7.449552 0 0 Z " fill="#0F0403" transform="translate(214,106)"/>
<path d="M0 0 C3.64581687 -0.02887512 7.29160463 -0.04675585 10.9375 -0.0625 C12.49887695 -0.07506836 12.49887695 -0.07506836 14.09179688 -0.08789062 C15.57583008 -0.09272461 15.57583008 -0.09272461 17.08984375 -0.09765625 C18.46450806 -0.10551147 18.46450806 -0.10551147 19.86694336 -0.11352539 C22 0 22 0 23 1 C23.04063832 2.66617115 23.042721 4.33388095 23 6 C21.865625 6.433125 20.73125 6.86625 19.5625 7.3125 C18.386875 7.869375 17.21125 8.42625 16 9 C15.67 9.99 15.34 10.98 15 12 C14.34 11.67 13.68 11.34 13 11 C14.3125 7.5625 14.3125 7.5625 16 4 C16.99 3.67 17.98 3.34 19 3 C15.43354453 1.89316899 12.0945207 1.86660379 8.375 1.875 C7.22773437 1.87242188 6.08046875 1.86984375 4.8984375 1.8671875 C2.06023956 1.80079553 2.06023956 1.80079553 0 3 C0 2.01 0 1.02 0 0 Z " fill="#070201" transform="translate(739,95)"/>
<path d="M0 0 C0 0.66 0 1.32 0 2 C-0.763125 1.731875 -1.52625 1.46375 -2.3125 1.1875 C-7.16474415 -0.3750871 -12.07563928 -1.68566885 -17 -3 C-17 -2.34 -17 -1.68 -17 -1 C-17.99 -1.33 -18.98 -1.66 -20 -2 C-22.01584651 -1.38290413 -24.01751285 -0.71706982 -26 0 C-26.66 0 -27.32 0 -28 0 C-28.66 1.32 -29.32 2.64 -30 4 C-30.66 4 -31.32 4 -32 4 C-32.28875 4.78375 -32.5775 5.5675 -32.875 6.375 C-34 9 -34 9 -36 11 C-35.4739075 7.21213403 -34.61896089 4.82847776 -32 2 C-31.34 2 -30.68 2 -30 2 C-29.67 1.01 -29.34 0.02 -29 -1 C-18.71364963 -7.07829795 -10.30144656 -4.53854715 0 0 Z " fill="#CB4C3F" transform="translate(920,81)"/>
<path d="M0 0 C-1 3 -1 3 -2.7421875 4.1328125 C-3.44601562 4.46023437 -4.14984375 4.78765625 -4.875 5.125 C-5.57367187 5.45757812 -6.27234375 5.79015625 -6.9921875 6.1328125 C-13.05528072 8.75150257 -20.88466655 9.48445957 -27.1875 7.2109375 C-28.8125 6.1875 -28.8125 6.1875 -31 4 C-31 3.01 -31 2.02 -31 1 C-30.401875 1.495 -29.80375 1.99 -29.1875 2.5 C-27.02970006 4.28276418 -27.02970006 4.28276418 -24 4 C-24 4.33 -24 4.66 -24 5 C-17.29481414 5.19818283 -11.34823202 5.30844801 -5 3 C-5 2.34 -5 1.68 -5 1 C-2 0 -2 0 0 0 Z " fill="#080101" transform="translate(534,158)"/>
<path d="M0 0 C0.33 0.99 0.66 1.98 1 3 C0.01 3.33 -0.98 3.66 -2 4 C-2 4.99 -2 5.98 -2 7 C1.465 8.98 1.465 8.98 5 11 C5 11.33 5 11.66 5 12 C0.38 12 -4.24 12 -9 12 C-9 10.02 -9 8.04 -9 6 C-8.071875 5.566875 -7.14375 5.13375 -6.1875 4.6875 C-3.52815927 3.27961373 -1.91894095 2.23876444 0 0 Z " fill="#0C0302" transform="translate(832,152)"/>
<path d="M0 0 C1.98 0 3.96 0 6 0 C6 4.29 6 8.58 6 13 C5.01 12.67 4.02 12.34 3 12 C3.165 10.906875 3.33 9.81375 3.5 8.6875 C4.06718184 5.12474127 4.06718184 5.12474127 4 2 C3.01 2 2.02 2 1 2 C-0.32 4.31 -1.64 6.62 -3 9 C-3.66 9 -4.32 9 -5 9 C-5 9.66 -5 10.32 -5 11 C-6.828125 12.69140625 -6.828125 12.69140625 -9.25 14.5625 C-10.03890625 15.18253906 -10.8278125 15.80257812 -11.640625 16.44140625 C-13.85122766 17.90172158 -15.41499341 18.56718926 -18 19 C-18 18.34 -18 17.68 -18 17 C-16.2421875 15.73828125 -16.2421875 15.73828125 -13.875 14.3125 C-8.56121689 10.895303 -4.80400897 6.93151458 -1.5 1.5625 C-1.005 1.046875 -0.51 0.53125 0 0 Z " fill="#090201" transform="translate(512,78)"/>
<path d="M0 0 C1.9375 0.8125 1.9375 0.8125 4 2 C4.33 2.99 4.66 3.98 5 5 C5.99 5.33 6.98 5.66 8 6 C9.43716747 7.07169276 10.83053395 8.20341183 12.1875 9.375 C12.90292969 9.98085937 13.61835937 10.58671875 14.35546875 11.2109375 C16 13 16 13 16 16 C17.65 16.33 19.3 16.66 21 17 C21 18.65 21 20.3 21 22 C20.34 22.33 19.68 22.66 19 23 C18.566875 22.236875 18.13375 21.47375 17.6875 20.6875 C16.16247642 18.03713747 16.16247642 18.03713747 14.3125 16.3125 C13.879375 15.879375 13.44625 15.44625 13 15 C13 14.34 13 13.68 13 13 C12.43796875 12.77441406 11.8759375 12.54882812 11.296875 12.31640625 C8.34047071 10.62200447 6.49808318 8.49047027 4.25 5.9375 C3.45078125 5.03902344 2.6515625 4.14054688 1.828125 3.21484375 C0 1 0 1 0 0 Z " fill="#C14A3B" transform="translate(895,131)"/>
<path d="M0 0 C1.21970604 3.65911811 0.63942883 4.43881321 -0.875 7.875 C-2.41822489 11.40391287 -3.22527262 14.1263631 -4 18 C-8.29 18 -12.58 18 -17 18 C-17.66 16.35 -18.32 14.7 -19 13 C-16 14 -16 14 -14 16 C-12.65938457 15.69728039 -11.32594105 15.36162029 -10 15 C-9.01 15.33 -8.02 15.66 -7 16 C-5.50254654 12.59669669 -4.09344268 9.28582466 -2.9375 5.75 C-2 3 -2 3 0 0 Z " fill="#0B0302" transform="translate(738,146)"/>
<path d="M0 0 C1.32 1.32 2.64 2.64 4 4 C3.67 4.99 3.34 5.98 3 7 C2.01 7.33 1.02 7.66 0 8 C0 7.34 0 6.68 0 6 C-1.65 5.67 -3.3 5.34 -5 5 C-5.33 5.99 -5.66 6.98 -6 8 C-10 8 -10 8 -12.75 5.5 C-13.4925 4.675 -14.235 3.85 -15 3 C-14.67 2.34 -14.34 1.68 -14 1 C-13.4740625 1.7734375 -13.4740625 1.7734375 -12.9375 2.5625 C-10.9414108 4.35620801 -10.9414108 4.35620801 -7.5625 3.875 C-4.1990923 3.04889986 -2.50751358 2.30691249 0 0 Z " fill="#0B0302" transform="translate(534,150)"/>
<path d="M0 0 C0 0.66 0 1.32 0 2 C-3.37097383 3.49821059 -5.20442119 4 -9 4 C-9 4.99 -9 5.98 -9 7 C-9.99 7.33 -10.98 7.66 -12 8 C-12.66 8.66 -13.32 9.32 -14 10 C-14.66 9.67 -15.32 9.34 -16 9 C-16.33 9.99 -16.66 10.98 -17 12 C-17.66 12 -18.32 12 -19 12 C-19 12.66 -19 13.32 -19 14 C-19.99 14.33 -20.98 14.66 -22 15 C-19.54020315 8.96231682 -14.46676681 5.23543342 -9 2 C-5.75137702 0.7260302 -3.48780362 0 0 0 Z " fill="#0B0302" transform="translate(788,93)"/>
<path d="M0 0 C0.33 0.99 0.66 1.98 1 3 C-1.10253933 4.79360702 -3.20694333 6.58494119 -5.3125 8.375 C-6.20485352 9.13683594 -6.20485352 9.13683594 -7.11523438 9.9140625 C-7.69208984 10.40390625 -8.26894531 10.89375 -8.86328125 11.3984375 C-9.39219971 11.84880371 -9.92111816 12.29916992 -10.46606445 12.76318359 C-11.91162467 13.92874273 -13.45494456 14.96996304 -15 16 C-17.1875 15.625 -17.1875 15.625 -19 15 C-17.69675781 14.00419922 -17.69675781 14.00419922 -16.3671875 12.98828125 C-15.2030743 12.09642033 -14.03901467 11.2044895 -12.875 10.3125 C-12.30523438 9.87744141 -11.73546875 9.44238281 -11.1484375 8.99414062 C-7.35374828 6.0834415 -3.65577385 3.08351746 0 0 Z " fill="#933A26" transform="translate(959,146)"/>
<path d="M0 0 C2.97 0.495 2.97 0.495 6 1 C6 4.63 6 8.26 6 12 C4 10 4 10 3.875 6.375 C3.91625 5.26125 3.9575 4.1475 4 3 C1.83333333 3.83333333 1.83333333 3.83333333 1 6 C-0.8196756 8.56408835 -2.72330754 10.83172147 -5 13 C-5.66 12.67 -6.32 12.34 -7 12 C-6.401875 11.13375 -5.80375 10.2675 -5.1875 9.375 C-3.17955466 6.37380056 -1.55344902 3.26224294 0 0 Z " fill="#0B0302" transform="translate(612,136)"/>
<path d="M0 0 C0.66 0.33 1.32 0.66 2 1 C1.67 8.59 1.34 16.18 1 24 C0.01 24 -0.98 24 -2 24 C-2 16.74 -2 9.48 -2 2 C-1.34 2 -0.68 2 0 2 C0 1.34 0 0.68 0 0 Z " fill="#0D0302" transform="translate(354,107)"/>
<path d="M0 0 C0.66 0.33 1.32 0.66 2 1 C2 1.99 2 2.98 2 4 C-5.83821955 10.55851024 -13.02252545 11.32476409 -23 11 C-19.79005287 7.79005287 -15.64650448 8.17513108 -11.26171875 7.66015625 C-6.85984696 6.76923849 -4.05239004 5.27012591 -1.1875 1.8125 C-0.795625 1.214375 -0.40375 0.61625 0 0 Z " fill="#0E0201" transform="translate(122,107)"/>
<path d="M0 0 C0.66 0 1.32 0 2 0 C1.67 1.65 1.34 3.3 1 5 C-0.8708878 5.67812114 -2.74694293 6.3419946 -4.625 7 C-5.66914062 7.37125 -6.71328125 7.7425 -7.7890625 8.125 C-11.01774506 9.00483564 -13.67244294 9.15988262 -17 9 C-16.34 8.34 -15.68 7.68 -15 7 C-14.01 7 -13.02 7 -12 7 C-11.67 6.34 -11.34 5.68 -11 5 C-10.01 4.67 -9.02 4.34 -8 4 C-7.67 3.34 -7.34 2.68 -7 2 C-6.34 2.33 -5.68 2.66 -5 3 C-2.39068734 2.10636395 -2.39068734 2.10636395 0 1 C0 0.67 0 0.34 0 0 Z " fill="#0D0302" transform="translate(130,116)"/>
<path d="M0 0 C2 3 2 3 1.8984375 5.33984375 C0.16421597 13.94624162 0.16421597 13.94624162 -4 17 C-4 14 -4 14 -3 11 C-3.99 11.495 -3.99 11.495 -5 12 C-5 9.69 -5 7.38 -5 5 C-4.01 5.33 -3.02 5.66 -2 6 C-2.33 6.33 -2.66 6.66 -3 7 C-2.34 7 -1.68 7 -1 7 C-1 5.68 -1 4.36 -1 3 C-1.66 2.67 -2.32 2.34 -3 2 C-2.01 1.34 -1.02 0.68 0 0 Z " fill="#0F0403" transform="translate(204,98)"/>
<path d="M0 0 C0.99 0 1.98 0 3 0 C6.88430829 6.99175493 8.34502177 13.98399425 8 22 C7.34 22.66 6.68 23.32 6 24 C5.81824219 22.85402344 5.63648438 21.70804688 5.44921875 20.52734375 C5.19577898 18.99731849 4.94184643 17.4673748 4.6875 15.9375 C4.51057617 14.80924805 4.51057617 14.80924805 4.33007812 13.65820312 C3.49325111 8.70161236 2.15466601 4.5447157 0 0 Z " fill="#0E0402" transform="translate(460,109)"/>
<path d="M0 0 C-2 2 -2 2 -4.375 2.4375 C-7.29373067 3.06294229 -8.69357507 4.17076643 -11 6 C-11.66 6 -12.32 6 -13 6 C-13.268125 6.61875 -13.53625 7.2375 -13.8125 7.875 C-15 10 -15 10 -18 12 C-18.515625 12.86625 -19.03125 13.7325 -19.5625 14.625 C-20.036875 15.40875 -20.51125 16.1925 -21 17 C-21.66 17 -22.32 17 -23 17 C-19.99774545 8.35350689 -13.15888054 3.62594915 -5.19921875 -0.28515625 C-3 -1 -3 -1 0 0 Z " fill="#0D0303" transform="translate(651,95)"/>
<path d="M0 0 C0.99 0.33 1.98 0.66 3 1 C3 2.98 3 4.96 3 7 C-2.61 7 -8.22 7 -14 7 C-14 6.34 -14 5.68 -14 5 C-13.00097656 4.95101562 -12.00195312 4.90203125 -10.97265625 4.8515625 C-9.68230469 4.77679688 -8.39195312 4.70203125 -7.0625 4.625 C-5.77472656 4.55539063 -4.48695313 4.48578125 -3.16015625 4.4140625 C-2.11730469 4.27742187 -1.07445312 4.14078125 0 4 C0.33 3.34 0.66 2.68 1 2 C0.34 1.67 -0.32 1.34 -1 1 C-0.67 0.67 -0.34 0.34 0 0 Z " fill="#0D0302" transform="translate(860,157)"/>
<path d="M0 0 C0.33 0 0.66 0 1 0 C1.33 8.25 1.66 16.5 2 25 C0.68 25.33 -0.64 25.66 -2 26 C-2.3189892 17.22779709 -1.11636806 8.68175521 0 0 Z " fill="#0D0202" transform="translate(437,129)"/>
<path d="M0 0 C8.53487451 1.35474199 14.75364575 4.35774889 20.5625 10.875 C21.036875 11.57625 21.51125 12.2775 22 13 C18.52830178 12.30566036 17.08721594 11.3161035 14.8125 8.5625 C11.40571082 5.62561277 7.53059337 4.09769745 3.0625 3.8125 C2.381875 3.874375 1.70125 3.93625 1 4 C0.67 2.68 0.34 1.36 0 0 Z " fill="#0E0302" transform="translate(664,93)"/>
<path d="M0 0 C1.20171204 3.60513612 0.70719075 4.43559272 -0.65234375 7.88671875 C-1.01650391 8.82451172 -1.38066406 9.76230469 -1.75585938 10.72851562 C-2.34077148 12.19321289 -2.34077148 12.19321289 -2.9375 13.6875 C-3.32357422 14.67556641 -3.70964844 15.66363281 -4.10742188 16.68164062 C-5.06332125 19.12449459 -6.02778293 21.56360441 -7 24 C-8.125 20.25 -8.125 20.25 -7 18 C-7.66 17.67 -8.32 17.34 -9 17 C-8.34 17 -7.68 17 -7 17 C-6.34 14.03 -5.68 11.06 -5 8 C-4.34 8 -3.68 8 -3 8 C-3.33 7.01 -3.66 6.02 -4 5 C-2.0625 2.3125 -2.0625 2.3125 0 0 Z " fill="#0C0302" transform="translate(752,108)"/>
<path d="M0 0 C3.3 0 6.6 0 10 0 C10 0.33 10 0.66 10 1 C7.36 1 4.72 1 2 1 C2 2.65 2 4.3 2 6 C3.1446875 5.87625 3.1446875 5.87625 4.3125 5.75 C7 6 7 6 8.8125 7.875 C10 10 10 10 10 12 C10.66 12.33 11.32 12.66 12 13 C12 13.66 12 14.32 12 15 C11.01 15 10.02 15 9 15 C7.66666667 13 6.33333333 11 5 9 C4.0925 8.505 3.185 8.01 2.25 7.5 C1.5075 7.005 0.765 6.51 0 6 C-0.3125 2.8125 -0.3125 2.8125 0 0 Z " fill="#0E0402" transform="translate(544,66)"/>
<path d="M0 0 C1.32 0 2.64 0 4 0 C3.67 0.66 3.34 1.32 3 2 C3.29369827 3.34262065 3.6278958 4.67696283 4 6 C4 6.66 4 7.32 4 8 C4.66 8.33 5.32 8.66 6 9 C6.38929201 10.65449105 6.708776 12.32546201 7 14 C7.65146849 16.33762223 8.31526605 18.67190457 9 21 C8.34 21 7.68 21 7 21 C3.92163279 14.05604954 1.37179687 7.48252838 0 0 Z " fill="#0C0202" transform="translate(711,137)"/>
<path d="M0 0 C1.32 0.33 2.64 0.66 4 1 C4.64453125 2.765625 4.64453125 2.765625 5 5 C4.07421875 6.921875 4.07421875 6.921875 2.6875 8.75 C2.23761719 9.36359375 1.78773438 9.9771875 1.32421875 10.609375 C0.88722656 11.06828125 0.45023438 11.5271875 0 12 C-0.66 12 -1.32 12 -2 12 C-1.67 10.35 -1.34 8.7 -1 7 C-0.34 7 0.32 7 1 7 C0.04134491 4.66924071 0.04134491 4.66924071 -3 3 C-2.01 2.67 -1.02 2.34 0 2 C0 1.34 0 0.68 0 0 Z " fill="#0C0303" transform="translate(816,144)"/>
<path d="M0 0 C2.94545056 2.43319829 3.32286717 4.32413607 4 8 C4.66 8.33 5.32 8.66 6 9 C6.66796875 10.7421875 6.66796875 10.7421875 7.1875 12.875 C7.36667969 13.57367188 7.54585937 14.27234375 7.73046875 14.9921875 C8 17 8 17 7 20 C6.20688633 18.27149655 5.4155741 16.54216646 4.625 14.8125 C4.18414063 13.84957031 3.74328125 12.88664063 3.2890625 11.89453125 C2.65097656 10.46173828 2.65097656 10.46173828 2 9 C1.61585938 8.13761719 1.23171875 7.27523437 0.8359375 6.38671875 C0 4 0 4 0 0 Z M6 7 C6.66 7 7.32 7 8 7 C8 7.66 8 8.32 8 9 C7.34 9 6.68 9 6 9 C6 8.34 6 7.68 6 7 Z " fill="#0C0402" transform="translate(703,116)"/>
<path d="M0 0 C-2.65623956 2.65623956 -4.50503463 2.35230896 -8.125 2.55859375 C-10.40685245 2.8705797 -10.40685245 2.8705797 -12 6 C-14.3431213 5.74438677 -16.67843403 5.40729228 -19 5 C-19.33 4.34 -19.66 3.68 -20 3 C-6.3667426 -0.44419134 -6.3667426 -0.44419134 0 0 Z " fill="#0E0303" transform="translate(431,95)"/>
<path d="M0 0 C4.875 2.75 4.875 2.75 6 5 C6.66 5 7.32 5 8 5 C8 5.99 8 6.98 8 8 C8.99 7.67 9.98 7.34 11 7 C11.66 7.33 12.32 7.66 13 8 C12.814375 8.598125 12.62875 9.19625 12.4375 9.8125 C11.77906313 12.16408762 11.77906313 12.16408762 13 15 C12.01 15 11.02 15 10 15 C9.608125 14.113125 9.21625 13.22625 8.8125 12.3125 C6.63662493 8.33590074 4.11987316 5.05993658 0 3 C0 2.01 0 1.02 0 0 Z " fill="#0F0303" transform="translate(114,73)"/>
<path d="M0 0 C0.5775 0.7425 1.155 1.485 1.75 2.25 C5.21247358 6.48191216 7.73069752 9.24356584 13 11 C13 11.66 13 12.32 13 13 C7.36139301 12.59724236 4.92653154 10.83521686 1 7 C0.67 6.01 0.34 5.02 0 4 C-0.66 3.34 -1.32 2.68 -2 2 C-1.34 1.34 -0.68 0.68 0 0 Z " fill="#0C0403" transform="translate(781,141)"/>
<path d="M0 0 C4.29150486 3.52516471 6.60657297 7.68755943 8 13 C8.32061027 18.02957365 8.23888851 22.96343384 8 28 C7.67 28 7.34 28 7 28 C6.97421875 27.0821875 6.9484375 26.164375 6.921875 25.21875 C6.49658846 16.01709576 5.09750323 10.64625485 0 3 C0 2.01 0 1.02 0 0 Z " fill="#8E4641" transform="translate(979,82)"/>
<path d="M0 0 C0.66 0.33 1.32 0.66 2 1 C1.67 2.32 1.34 3.64 1 5 C2.134375 5.433125 3.26875 5.86625 4.4375 6.3125 C5.613125 6.869375 6.78875 7.42625 8 8 C8.33 8.99 8.66 9.98 9 11 C8.34 11.66 7.68 12.32 7 13 C6.67 11.68 6.34 10.36 6 9 C4.865625 8.855625 3.73125 8.71125 2.5625 8.5625 C-1 8 -1 8 -2 7 C-2.04080783 5.00041636 -2.04254356 2.99954746 -2 1 C-1.34 0.67 -0.68 0.34 0 0 Z " fill="#080202" transform="translate(491,96)"/>
<path d="M0 0 C4.27341914 0.47482435 6.10319428 3.03077413 9 6 C11.16620544 7.29519995 11.16620544 7.29519995 13 8 C13 8.66 13 9.32 13 10 C13.66 10.33 14.32 10.66 15 11 C9.69537856 10.66846116 5.7543588 7.53887684 2 4 C0.76171875 1.80078125 0.76171875 1.80078125 0 0 Z " fill="#0B0201" transform="translate(766,154)"/>
<path d="M0 0 C0.33 0 0.66 0 1 0 C1.054348 2.0622048 1.09294961 4.12482816 1.125 6.1875 C1.14820313 7.33605469 1.17140625 8.48460938 1.1953125 9.66796875 C1.00484152 12.91740372 0.39360127 15.08660521 -1 18 C-1.66 18 -2.32 18 -3 18 C-2.22095672 5.33029613 -2.22095672 5.33029613 0 0 Z " fill="#100404" transform="translate(625,115)"/>
<path d="M0 0 C2.22889496 -0.05428973 4.45817471 -0.09292338 6.6875 -0.125 C8.54955078 -0.15980469 8.54955078 -0.15980469 10.44921875 -0.1953125 C13.81237857 -0.01032021 15.9985587 0.54232105 19 2 C18.67 2.66 18.34 3.32 18 4 C17.29230469 3.84660156 16.58460938 3.69320312 15.85546875 3.53515625 C13.0017072 3.00031995 10.20434047 2.68604836 7.3125 2.4375 C6.35988281 2.35371094 5.40726562 2.26992187 4.42578125 2.18359375 C2.07307043 1.97484382 2.07307043 1.97484382 0 2 C0 1.34 0 0.68 0 0 Z " fill="#0B0303" transform="translate(451,93)"/>
<path d="M0 0 C0.99 0.33 1.98 0.66 3 1 C1.90716423 2.03295436 0.80029421 3.05107835 -0.3125 4.0625 C-0.92738281 4.63097656 -1.54226563 5.19945312 -2.17578125 5.78515625 C-2.77777344 6.18605469 -3.37976563 6.58695313 -4 7 C-7 6 -7 6 -8.1875 3.9375 C-8.5896875 2.9784375 -8.5896875 2.9784375 -9 2 C-6.50935112 1.31292445 -4.62113708 1 -2 1 C-1.34 0.67 -0.68 0.34 0 0 Z " fill="#BF402E" transform="translate(939,159)"/>
<path d="M0 0 C1.98000188 2.97000282 3.46878792 5.94819966 5 9.16015625 C5.97833111 11.16739396 5.97833111 11.16739396 8 13 C6.35 13.33 4.7 13.66 3 14 C2.566875 12.63875 2.566875 12.63875 2.125 11.25 C1.14690572 8.11697634 1.14690572 8.11697634 -0.1875 5.875 C-1.20610263 3.52437854 -0.84518292 2.36651218 0 0 Z " fill="#0C0201" transform="translate(645,144)"/>
<path d="M0 0 C0.33 0 0.66 0 1 0 C1.33 6.27 1.66 12.54 2 19 C1.01 19.33 0.02 19.66 -1 20 C-1.02703562 17.41659616 -1.04685611 14.83347692 -1.0625 12.25 C-1.07087891 11.52039063 -1.07925781 10.79078125 -1.08789062 10.0390625 C-1.10391684 6.51329442 -0.95292713 3.38965084 0 0 Z " fill="#120604" transform="translate(643,124)"/>
<path d="M0 0 C3.875 1.75 3.875 1.75 5 4 C5.99 4.66 6.98 5.32 8 6 C8.33 5.01 8.66 4.02 9 3 C9.99 4.485 9.99 4.485 11 6 C10.01 6.99 9.02 7.98 8 9 C7.236875 8.690625 6.47375 8.38125 5.6875 8.0625 C3.81210323 7.32106407 1.91315348 6.63771783 0 6 C0 4.02 0 2.04 0 0 Z " fill="#0E0402" transform="translate(409,99)"/>
<path d="M0 0 C-0.61875 0.28875 -1.2375 0.5775 -1.875 0.875 C-4.13325765 1.93720042 -4.13325765 1.93720042 -6 4 C-7.31747324 4.69748583 -8.64914193 5.36959957 -10 6 C-10 6.66 -10 7.32 -10 8 C-11.65 8.66 -13.3 9.32 -15 10 C-15 9.01 -15 8.02 -15 7 C-13.390625 5.46484375 -13.390625 5.46484375 -11.25 3.9375 C-10.55390625 3.43089844 -9.8578125 2.92429687 -9.140625 2.40234375 C-3.62769231 -1.20923077 -3.62769231 -1.20923077 0 0 Z " fill="#0E0303" transform="translate(369,95)"/>
<path d="M0 0 C-0.33 0.99 -0.66 1.98 -1 3 C-3.0625 3.6875 -3.0625 3.6875 -5 4 C-5.0825 4.5775 -5.165 5.155 -5.25 5.75 C-6.21797787 8.6539336 -7.68694284 10.03740604 -10 12 C-10.66 12 -11.32 12 -12 12 C-10.82763323 7.16398706 -5.40844892 0 0 0 Z " fill="#C74D3B" transform="translate(950,80)"/>
<path d="M0 0 C1.32 0.33 2.64 0.66 4 1 C3.09522263 2.46573934 2.17565859 3.92235756 1.25 5.375 C0.73953125 6.18710938 0.2290625 6.99921875 -0.296875 7.8359375 C-2.0673335 10.08555679 -3.36907419 10.95906848 -6 12 C-6 10.35 -6 8.7 -6 7 C-5.01 7.33 -4.02 7.66 -3 8 C-2.67 7.01 -2.34 6.02 -2 5 C-1.34 5 -0.68 5 0 5 C0 3.68 0 2.36 0 1 C0 0.67 0 0.34 0 0 Z " fill="#0D0202" transform="translate(687,145)"/>
<path d="M0 0 C1.32 0 2.64 0 4 0 C3.54857225 1.77260631 3.08859477 3.5430368 2.625 5.3125 C2.36976563 6.29863281 2.11453125 7.28476563 1.8515625 8.30078125 C1 11 1 11 -1 14 C-1.93570461 9.22790647 -2.13363464 6.3927772 0 2 C0 1.34 0 0.68 0 0 Z " fill="#0E0402" transform="translate(644,106)"/>
<path d="M0 0 C2.29160319 -0.02692484 4.58329546 -0.04636124 6.875 -0.0625 C8.15117187 -0.07410156 9.42734375 -0.08570312 10.7421875 -0.09765625 C14 0 14 0 16 1 C16 1.66 16 2.32 16 3 C13.51979503 2.88658509 11.04155031 2.75985314 8.5625 2.625 C7.85544922 2.5940625 7.14839844 2.563125 6.41992188 2.53125 C4.60760812 2.42719371 2.80182012 2.22080108 1 2 C0.67 1.34 0.34 0.68 0 0 Z " fill="#0D0505" transform="translate(370,93)"/>
<path d="M0 0 C4.26672384 0.47408043 6.2455048 2.88307122 9 6 C10.3125 8.3125 10.3125 8.3125 11 10 C10.01 10 9.02 10 8 10 C6.66666667 8.66666667 5.33333333 7.33333333 4 6 C4 5.34 4 4.68 4 4 C2.70766393 2.62689293 1.37562854 1.28965176 0 0 Z " fill="#0C0202" transform="translate(342,95)"/>
<path d="M0 0 C1.37095624 3.69037278 0.60010967 5.70883835 -0.9375 9.25 C-1.31777344 10.14203125 -1.69804688 11.0340625 -2.08984375 11.953125 C-2.39019531 12.62859375 -2.69054687 13.3040625 -3 14 C-3.66 13.34 -4.32 12.68 -5 12 C-4.625 9.375 -4.625 9.375 -4 7 C-3.34 7 -2.68 7 -2 7 C-2 5.35 -2 3.7 -2 2 C-1.34 2 -0.68 2 0 2 C0 1.34 0 0.68 0 0 Z " fill="#0B0302" transform="translate(743,132)"/>
<path d="M0 0 C0.7734375 -0.00515625 1.546875 -0.0103125 2.34375 -0.015625 C4.5 0.25 4.5 0.25 7.5 2.25 C7.5 2.91 7.5 3.57 7.5 4.25 C5.37465341 4.10930804 3.24972471 3.96229079 1.125 3.8125 C-0.05835937 3.73128906 -1.24171875 3.65007812 -2.4609375 3.56640625 C-5.5 3.25 -5.5 3.25 -7.5 2.25 C-4.377998 0.16866533 -3.56733011 -0.0237822 0 0 Z " fill="#0A0201" transform="translate(105.5,70.75)"/>
<path d="M0 0 C0.33 0.99 0.66 1.98 1 3 C3.00016466 4.20882096 3.00016466 4.20882096 5 5 C3.02 5.33 1.04 5.66 -1 6 C-1 5.01 -1 4.02 -1 3 C-1.66 3 -2.32 3 -3 3 C-2.67 3.99 -2.34 4.98 -2 6 C-2.66 6 -3.32 6 -4 6 C-4.33 4.68 -4.66 3.36 -5 2 C-3.35 1.34 -1.7 0.68 0 0 Z " fill="#1A0E0C" transform="translate(417,185)"/>
<path d="M0 0 C0.33 0.66 0.66 1.32 1 2 C2.32 1.67 3.64 1.34 5 1 C4.25 5.75 4.25 5.75 2 8 C1.01 8.33 0.02 8.66 -1 9 C-0.7215625 8.1028125 -0.7215625 8.1028125 -0.4375 7.1875 C0.22093687 4.83591238 0.22093687 4.83591238 -1 2 C-0.67 1.34 -0.34 0.68 0 0 Z " fill="#1D0E0D" transform="translate(805,152)"/>
<path d="M0 0 C-1.49097658 3.7952131 -3.75700849 5.61042731 -7 8 C-6.75 4.625 -6.75 4.625 -6 1 C-3.56217182 -0.88735085 -2.80901846 -1.40450923 0 0 Z " fill="#C7473C" transform="translate(966,138)"/>
<path d="M0 0 C5.82952386 0.40203613 9.35347814 1.14678675 14 5 C14.33 5.99 14.66 6.98 15 8 C13.02 7.34 11.04 6.68 9 6 C9 5.01 9 4.02 9 3 C4.545 2.01 4.545 2.01 0 1 C0 0.67 0 0.34 0 0 Z " fill="#C74C3D" transform="translate(964,77)"/>
<path d="M0 0 C0.66 0.33 1.32 0.66 2 1 C1.525625 1.350625 1.05125 1.70125 0.5625 2.0625 C-1.65942465 4.81768657 -1.5527537 7.54981423 -2 11 C-2.99 11.495 -2.99 11.495 -4 12 C-5.11974683 8.53896434 -5.07897784 7.19556417 -3.6875 3.75 C-2 1 -2 1 0 0 Z " fill="#0D0301" transform="translate(440,107)"/>
<path d="M0 0 C1.73694677 2.60542016 2.69100448 4.58342775 3.6875 7.5 C3.95949219 8.2734375 4.23148438 9.046875 4.51171875 9.84375 C5 12 5 12 4 15 C4 14.34 4 13.68 4 13 C3.34 13 2.68 13 2 13 C1.86722656 12.37351562 1.73445312 11.74703125 1.59765625 11.1015625 C1.42105469 10.28429687 1.24445312 9.46703125 1.0625 8.625 C0.80146484 7.40683594 0.80146484 7.40683594 0.53515625 6.1640625 C0.07669307 3.970537 0.07669307 3.970537 -1 2 C-0.67 1.34 -0.34 0.68 0 0 Z " fill="#0C0302" transform="translate(721,113)"/>
<path d="M0 0 C3.67230705 3.07999946 4.56802365 5.2482602 5 10 C4.34 10 3.68 10 3 10 C3 9.34 3 8.68 3 8 C2.01 8 1.02 8 0 8 C0 5.36 0 2.72 0 0 Z " fill="#C84B3C" transform="translate(979,85)"/>
<path d="M0 0 C2.96175123 0.61277612 4.38058783 1.25372522 7 3 C3.25 6 3.25 6 1 6 C1 5.34 1 4.68 1 4 C0.01 3.67 -0.98 3.34 -2 3 C-0.68 3 0.64 3 2 3 C2 2.34 2 1.68 2 1 C1.34 0.67 0.68 0.34 0 0 Z " fill="#120403" transform="translate(674,155)"/>
<path d="M0 0 C0.33 0 0.66 0 1 0 C1.22577402 5.4185766 0.46670113 9.77487721 -1 15 C-2.71056541 12.41569255 -3.05220752 11.31678461 -2.5390625 8.203125 C-2.23742187 7.22859375 -1.93578125 6.2540625 -1.625 5.25 C-1.32851563 4.26515625 -1.03203125 3.2803125 -0.7265625 2.265625 C-0.48679687 1.51796875 -0.24703125 0.7703125 0 0 Z " fill="#0C0302" transform="translate(693,130)"/>
<path d="M0 0 C-1.36983503 3.16115776 -1.9890638 3.9927092 -5 6 C-7.1875 5.625 -7.1875 5.625 -9 5 C-7.87926138 4.16094435 -6.75325453 3.32892169 -5.625 2.5 C-4.99851562 2.0359375 -4.37203125 1.571875 -3.7265625 1.09375 C-2 0 -2 0 0 0 Z " fill="#8C2D22" transform="translate(949,156)"/>
<path d="M0 0 C0.99 0.33 1.98 0.66 3 1 C-2.14285714 6.57142857 -2.14285714 6.57142857 -6 7 C-4.75686537 3.27059611 -3.23014784 2.15343189 0 0 Z " fill="#0C0202" transform="translate(472,155)"/>
<path d="M0 0 C2.79872437 2.52788007 4.45773019 4.20411134 5 8 C2.69 7.67 0.38 7.34 -2 7 C-1.67 6.01 -1.34 5.02 -1 4 C-1 4.66 -1 5.32 -1 6 C-0.34 6 0.32 6 1 6 C0.67 4.02 0.34 2.04 0 0 Z " fill="#CB483C" transform="translate(925,87)"/>
<path d="M0 0 C0.66 0.66 1.32 1.32 2 2 C-1.72965139 4.03435531 -3.66905042 5 -8 5 C-8 4.34 -8 3.68 -8 3 C-5.36 2.01 -2.72 1.02 0 0 Z " fill="#0A0202" transform="translate(673,160)"/>
<path d="M0 0 C0.66 0 1.32 0 2 0 C2 0.66 2 1.32 2 2 C2.66 2 3.32 2 4 2 C4.33 4.31 4.66 6.62 5 9 C4.01 9.495 4.01 9.495 3 10 C2.01 6.7 1.02 3.4 0 0 Z " fill="#110404" transform="translate(699,106)"/>
<path d="M0 0 C0.66 0.33 1.32 0.66 2 1 C2 3.97 2 6.94 2 10 C0.35 9.67 -1.3 9.34 -3 9 C-2.505 8.62875 -2.01 8.2575 -1.5 7.875 C0.59755514 5.25305607 0.21743835 3.26157528 0 0 Z M-1 10 C-0.67 10.66 -0.34 11.32 0 12 C-0.66 11.67 -1.32 11.34 -2 11 C-1.67 10.67 -1.34 10.34 -1 10 Z " fill="#100402" transform="translate(435,93)"/>
<path d="M0 0 C0.33 0 0.66 0 1 0 C1.04898438 0.77085938 1.09796875 1.54171875 1.1484375 2.3359375 C1.22320313 3.33882812 1.29796875 4.34171875 1.375 5.375 C1.44460938 6.37273437 1.51421875 7.37046875 1.5859375 8.3984375 C1.76363964 11.15508879 1.76363964 11.15508879 4 13 C3.01 13.33 2.02 13.66 1 14 C0 13 0 13 -0.09765625 10.05859375 C-0.08605469 8.86363281 -0.07445312 7.66867188 -0.0625 6.4375 C-0.05347656 5.23996094 -0.04445313 4.04242188 -0.03515625 2.80859375 C-0.02355469 1.88175781 -0.01195312 0.95492187 0 0 Z " fill="#0B0202" transform="translate(759,126)"/>
<path d="M0 0 C0 3 0 3 -1.5 4.6875 C-1.995 5.120625 -2.49 5.55375 -3 6 C-3 5.01 -3 4.02 -3 3 C-4.65 2.67 -6.3 2.34 -8 2 C-5.44123378 -0.55876622 -3.37797483 -1.68898741 0 0 Z " fill="#100403" transform="translate(701,100)"/>
<path d="M0 0 C0.8971875 0.99 0.8971875 0.99 1.8125 2 C3.87501834 4.3373846 3.87501834 4.3373846 7 4 C6.67 4.99 6.34 5.98 6 7 C4.02 6.34 2.04 5.68 0 5 C0 3.35 0 1.7 0 0 Z " fill="#0A0201" transform="translate(150,99)"/>
<path d="M0 0 C2.97 0.495 2.97 0.495 6 1 C6.33 2.32 6.66 3.64 7 5 C3.47967572 5 2.5614657 4.29648649 0 2 C0 1.34 0 0.68 0 0 Z " fill="#0F0403" transform="translate(328,105)"/>
<path d="M0 0 C0.99 0.33 1.98 0.66 3 1 C2.01 2.98 1.02 4.96 0 7 C-1.32 6.67 -2.64 6.34 -4 6 C-2.89131683 3.78263366 -1.50559539 1.96382007 0 0 Z " fill="#A93F33" transform="translate(935,91)"/>
<path d="M0 0 C-0.66 0 -1.32 0 -2 0 C-2 0.99 -2 1.98 -2 3 C-3.32 2.67 -4.64 2.34 -6 2 C-6 2.66 -6 3.32 -6 4 C-6.99 4.33 -7.98 4.66 -9 5 C-9 4.34 -9 3.68 -9 3 C-8.34 3 -7.68 3 -7 3 C-6.67 2.01 -6.34 1.02 -6 0 C-3.50907189 -1.24546405 -2.58919267 -0.7767578 0 0 Z " fill="#200E0D" transform="translate(80,156)"/>
<path d="M0 0 C1.32 0.33 2.64 0.66 4 1 C4 1.66 4 2.32 4 3 C2 4.625 2 4.625 0 6 C-0.66 5.67 -1.32 5.34 -2 5 C-1.34 3.35 -0.68 1.7 0 0 Z " fill="#1C0D0B" transform="translate(813,148)"/>
<path d="M0 0 C5.27272727 2.63636364 5.27272727 2.63636364 7 5 C6.67 6.32 6.34 7.64 6 9 C4.02 6.03 2.04 3.06 0 0 Z " fill="#C74637" transform="translate(904,139)"/>
<path d="M0 0 C2.79872437 2.52788007 4.45773019 4.20411134 5 8 C3.02 7.01 1.04 6.02 -1 5 C-0.67 3.35 -0.34 1.7 0 0 Z " fill="#100302" transform="translate(686,106)"/>
<path d="M0 0 C0.99 0.66 1.98 1.32 3 2 C2.67 2.99 2.34 3.98 2 5 C1.01 5 0.02 5 -1 5 C-1 4.34 -1 3.68 -1 3 C-1.66 3 -2.32 3 -3 3 C-3 2.34 -3 1.68 -3 1 C-2.01 0.67 -1.02 0.34 0 0 Z " fill="#150B0E" transform="translate(402,157)"/>
<path d="M0 0 C0 4.38968456 -2.12805101 5.76905739 -5 9 C-5.33 8.01 -5.66 7.02 -6 6 C-5.38125 5.7525 -4.7625 5.505 -4.125 5.25 C-1.64931313 3.79371361 -1.04874998 2.62187494 0 0 Z " fill="#0C0202" transform="translate(481,147)"/>
<path d="M0 0 C1.9451 2.91765 2.45276317 4.62537285 3 8 C2.01 8 1.02 8 0 8 C-0.38063221 5.6739143 -0.71269945 3.33944736 -1 1 C-0.67 0.67 -0.34 0.34 0 0 Z " fill="#0D0202" transform="translate(728,133)"/>
<path d="M0 0 C0.99 0 1.98 0 3 0 C3.625 2.8125 3.625 2.8125 4 6 C3.01 7.485 3.01 7.485 2 9 C1.34 6.03 0.68 3.06 0 0 Z " fill="#0E0402" transform="translate(830,106)"/>
<path d="M0 0 C1.7074998 1.28062485 3.37373596 2.61767557 5 4 C5 4.66 5 5.32 5 6 C3.35 6 1.7 6 0 6 C0 4.02 0 2.04 0 0 Z " fill="#0E0503" transform="translate(475,100)"/>
<path d="M0 0 C-2.39509338 2.89932357 -4.31245243 3.50168276 -8 4 C-8.33 3.34 -8.66 2.68 -9 2 C-3.375 -1.125 -3.375 -1.125 0 0 Z " fill="#0C0302" transform="translate(814,149)"/>
<path d="M0 0 C0.33 0 0.66 0 1 0 C1.33 2.97 1.66 5.94 2 9 C1.01 9 0.02 9 -1 9 C-2.25541557 5.23375329 -1.37061958 3.62811066 0 0 Z " fill="#0D0101" transform="translate(517,142)"/>
<path d="M0 0 C0.66 0 1.32 0 2 0 C2.66 1.98 3.32 3.96 4 6 C3.01 6 2.02 6 1 6 C-0.0625 4.125 -0.0625 4.125 -1 2 C-0.67 1.34 -0.34 0.68 0 0 Z " fill="#D24D3F" transform="translate(892,123)"/>
</svg>
